<svg xmlns="http://www.w3.org/2000/svg" viewBox="0 0 500 500"><g id="freepik--Background--inject-242"><g id="freepik--Mountains--inject-242"><g id="freepik--mountains--inject-242"><path d="M462.93,266.75V210.81s-87.58-69.49-94.43-69.14c-5.21.27-15,8.15-15,8.15s-31.93-32.27-38.16-33-95.91,90.26-95.91,90.26v59.7Z" style="fill:#e0e0e0"></path><path d="M462.93,266.75V210.81s-87.58-69.49-94.43-69.14c-5.21.27-15,8.15-15,8.15s-31.93-32.27-38.16-33-95.91,90.26-95.91,90.26v59.7Z" style="fill:#ebebeb"></path><path d="M353.47,149.82l-12.08,9.09c3.65-2.74,7,1.71,12.08,1.53s8-4.56,12.91-3.18c4,1.12,5.62,2.86,8.46,3.31,5.21.83,3.77-2,6.71-2.62,2-.42,12.17,1.11,16.31,2.84-14.83-10.91-27-19.24-29.36-19.12a8.53,8.53,0,0,0-1.85.35,20.94,20.94,0,0,0-3.53,1.45l-1,.52a63.7,63.7,0,0,0-6.23,4c-1.48,1.07-2.44,1.84-2.44,1.84Z" style="fill:#f5f5f5"></path><path d="M312.81,136.46c3.94.31,10.34,4.1,13,1.71s8.68-6.67,11.3-4.2c-8.87-8.29-18.66-16.8-21.82-17.18-2.08-.26-13.49,9.74-27.74,23.16,6-3.49,10.08.78,13.65,1.72S308.87,136.14,312.81,136.46Z" style="fill:#f5f5f5"></path><path d="M322.34,129.49c4.21,5.24-4.11,1.18-8.1,2.36S329,146,325.67,149.07c-1.85,1.71-13.84-2.89-11.58,1.3.72,1.34,13.06,11,7.3,11.74-3.43.43-8.14-1.35-6.16,3.53a26.05,26.05,0,0,0,5.78,8.62l32.46-24.44S323,119,315.78,116.89l-.47-.1C314,117.22,318.13,124.25,322.34,129.49Z" style="fill:#fff;opacity:0.30000000000000004"></path><path d="M377.35,168.6c.19,2.09-14.53-1.94-15-.08s16.77,15.19,17,19.09c.14,2.13-6.19.53-11.1-1.2-3.4-1.19-9,0-4.09,5.8,2.65,3.11,81.86,63.45,96.43,74.54h2.3V210.81c-3.37-2.67-87.72-69.48-94.43-69.14a4.78,4.78,0,0,0-.63.09c-2.1.93,3.3,7.32,4.43,9.67,1.23,2.54-10.35,0-10.83,1.71S377.17,166.52,377.35,168.6Z" style="fill:#fff;opacity:0.30000000000000004"></path><path d="M267.23,266.75V196.29s-60.85-53.92-66.67-53.62c-4.43.22-30,19.18-30,19.18s-29.81-26.74-35.11-27.38-98.95,72-98.95,72l0,60.29Z" style="fill:#e0e0e0"></path><path d="M267.23,266.75V196.29s-60.85-53.92-66.67-53.62c-4.43.22-30,19.18-30,19.18s-29.81-26.74-35.11-27.38-98.95,72-98.95,72l0,60.29Z" style="fill:#ebebeb"></path><path d="M200.55,142.67c-2.78.14-13.87,7.64-21.76,13.22,2.24.46,6.08,2.83,9,2.73,4.36-.16,7.69-4.16,10.8-2.43s6.7,6.05,10.7,6.7c6.41,1.05,7.39-1.61,10.83-.82a85.67,85.67,0,0,0,8.74,1.25C215.4,152.18,203,142.54,200.55,142.67Z" style="fill:#f5f5f5"></path><path d="M133.29,151.18c3.34.27,8.79,3.49,11.06,1.46s5.19-3.61,7.94-2.8,6.83,2.12,6.83,2.12h0c-9-7.69-20.62-17.1-23.74-17.48-1.73-.21-12.86,7.37-27.07,17.69,7.1-1.4,8.68,4.55,13.28,3.54C126.42,154.64,129.94,150.92,133.29,151.18Z" style="fill:#f5f5f5"></path><path d="M141.39,145.26c3.58,4.45-3.49,1-6.89,2s11.84,9.8,9,12.43c-1.57,1.45-9.19-2-7.27,1.51s14.34,14.22,14.34,14.22l19.93-13.58s-28.59-25.5-34.71-27.29l-.4-.09C134.3,134.83,137.81,140.81,141.39,145.26Z" style="fill:#fff;opacity:0.30000000000000004"></path><path d="M202.53,152.42c1,2.16-7.55-1.45-8,0s11.64,13.69,11.8,15.47-10.65-4-11-2.4,14.24,12.91,14.45,16.22c.12,1.81-5.26.45-9.43-1-2.89-1-7.68,0-3.48,4.93,2.47,2.89,69.51,59,70.34,59.69v-49s-60.85-53.92-66.67-53.62a3,3,0,0,0-.59.1C198.3,143.69,201.57,150.44,202.53,152.42Z" style="fill:#fff;opacity:0.30000000000000004"></path></g></g><g id="freepik--Palms--inject-242"><path d="M9.66,175.53a11.11,11.11,0,0,1,2.69-6.05,15.11,15.11,0,0,0-1.73,6c.88-3.17,2.36-5.46,5.16-6.19-3.95,3.58-5.51,10.19-4.89,15.4a19.1,19.1,0,0,1,2.64-8.32,35.64,35.64,0,0,0-1.41,7,22.88,22.88,0,0,1,4.3-7.32,25.14,25.14,0,0,0-1.65,14,19.59,19.59,0,0,1,2.3-11.71,30.08,30.08,0,0,0-1.16,6.92,19.16,19.16,0,0,1,4.3-9.62c-2.65,6-2.13,13-.87,19.26-.33-4.83-.81-12.5,2.09-17.17a30.84,30.84,0,0,0-.17,14.34,21.91,21.91,0,0,1,1-10.69,47.94,47.94,0,0,0,.74,8.42,75.7,75.7,0,0,1,.28-8.16A96.39,96.39,0,0,0,26.69,194c-.1-.52-2.18-10.17-1.56-15.42a42.56,42.56,0,0,0,1,8.17c-.08-1.26-.15-2.71-.16-4.25A29.85,29.85,0,0,0,27.9,188a43.58,43.58,0,0,1-1.21-10.74c.74,3.36,1.32,4.64,1.93,5.39.15.71.31,1.42.49,2.09-.1-.6-.19-1.22-.27-1.85a4.38,4.38,0,0,0,.39.36,1.24,1.24,0,0,0,.7.25c2.62,15.7,6.46,59.06,6.59,83.23h.23c1.78-1.83,3.64-3.65,5.59-5.44-1.73-25.2-5.07-57-10.25-78.29a1.36,1.36,0,0,0,.25-.22,4,4,0,0,0,.51-1.63,44.73,44.73,0,0,1,.76,5.51,35.27,35.27,0,0,0-.72-8.13,39,39,0,0,0-.49-3.87A51.29,51.29,0,0,1,36,188.06a50.32,50.32,0,0,0-1.83-11.26,44.48,44.48,0,0,1,4.72,13.45,59.5,59.5,0,0,0-1.25-8.34c1,2.12,1.7,3.89,2,4.51-.32-1-1.62-5.06-3-8.39-.13-.42-.26-.83-.39-1.22,3,2.33,5.2,7,6.53,11.52-.47-3.24-.76-6.21-1.8-9,2.44,2.66,3.74,6.35,4.57,9.73a23.52,23.52,0,0,0-6.61-15.82c3.47,1.42,5.91,3.92,8.43,8.24a17.25,17.25,0,0,0-6.87-9.84,11.62,11.62,0,0,1,7.29,6.06,13.7,13.7,0,0,0-8.95-9,14.41,14.41,0,0,1,9.43,4.9c-1.32-3.32-5.76-6.4-10.22-7.38a8.78,8.78,0,0,1,6.72,1.41,11,11,0,0,0-9.34-3c4.77-2.65,9.73.25,12.54,3.78-1.18-3.9-6.28-7.43-10.79-7a9.31,9.31,0,0,1,5.28-1.25,13.29,13.29,0,0,0-7.39.63,6.39,6.39,0,0,1,5.22-1.51,7.7,7.7,0,0,0-5.36-.23c2.3-2,5.2-2.08,9-.55-5.31-3.15-10.63-2.72-13.71,2.28.62-3.24,1.94-6.92,5.5-7.25a6,6,0,0,0-5.35,2.82c.41-1.47.81-2.61.85-2.75a21.26,21.26,0,0,0-3,4.86,20.61,20.61,0,0,0-3.56-9.33,29.8,29.8,0,0,1,2.06,8.06,11.29,11.29,0,0,0-5-5,16.76,16.76,0,0,1,3,4.65,8.52,8.52,0,0,0-3.88-3,9.54,9.54,0,0,1,3.32,4.39c-1.7-1.52-3.89-2.65-6-1.19,1.78,0,3.23,1.13,4.37,2.61a9.45,9.45,0,0,0-5.28-1c-3.32.39-5.65,3.06-7.16,5.84,2.67-3.05,6.16-4.79,10.06-2.6-3.36-.1-6.06,1.37-8.59,3.44,2.16-1.15,5-2.4,7.45-2a13.32,13.32,0,0,0-3.13.91C11.44,166.19,9.45,170.61,9.66,175.53Z" style="fill:#e0e0e0"></path><path d="M87.72,175.18c-.61-3.34-4.17-7-8.14-8.75a8.39,8.39,0,0,1,6,2.55,10.45,10.45,0,0,0-8.14-4.47c4.92-1.59,9,2,11,5.82-.38-3.84-4.47-8.06-8.73-8.52a8.75,8.75,0,0,1,5.13-.18,12.41,12.41,0,0,0-7-.79,6.07,6.07,0,0,1,5.13-.43,7.25,7.25,0,0,0-4.94-1.2c2.51-1.45,5.21-1,8.46,1.14-4.36-3.9-9.38-4.49-13.17-.41,1.18-2.9,3.08-6.07,6.45-5.72a5.69,5.69,0,0,0-5.49,1.63c.66-1.29,1.22-2.28,1.29-2.4a20.2,20.2,0,0,0-3.7,4,19.69,19.69,0,0,0-1.58-9.32,28.34,28.34,0,0,1,.42,7.87A10.65,10.65,0,0,0,67,150.43a15.56,15.56,0,0,1,1.91,4.87,8.07,8.07,0,0,0-3-3.52,9,9,0,0,1,2.28,4.69c-1.3-1.73-3.13-3.18-5.35-2.21,1.66.29,2.79,1.65,3.58,3.23a8.82,8.82,0,0,0-4.72-1.94c-3.15-.26-5.8,1.8-7.72,4.1,3-2.34,6.61-3.32,9.82-.56-3.1-.72-5.88.15-8.61,1.62,2.21-.67,5-1.33,7.28-.48a13,13,0,0,0-3.07.27c-4.43.93-7.09,4.68-7.8,9.28a10.52,10.52,0,0,1,3.62-5.12,14.15,14.15,0,0,0-2.72,5.28c1.4-2.78,3.19-4.63,5.93-4.8-4.33,2.6-7,8.46-7.38,13.42a18.18,18.18,0,0,1,4-7.25,34.37,34.37,0,0,0-2.6,6.28,21.57,21.57,0,0,1,5.35-6,23.71,23.71,0,0,0-4.12,12.71,18.55,18.55,0,0,1,4.29-10.46,28.59,28.59,0,0,0-2.35,6.22,18.26,18.26,0,0,1,5.77-8.16c-3.57,5.11-4.37,11.68-4.36,17.75.59-4.55,1.55-11.77,5.1-15.57a29.35,29.35,0,0,0-2.79,13.29,20.68,20.68,0,0,1,2.92-9.75,45.08,45.08,0,0,0-.87,8,72.57,72.57,0,0,1,1.77-7.52A88.2,88.2,0,0,0,64,190.11c0-.48-.16-9.86,1.39-14.63a40.87,40.87,0,0,0-.57,7.78c.17-1.19.37-2.55.64-4a27.85,27.85,0,0,0,.76,5.47,41.69,41.69,0,0,1,.86-10.2c.06,3.26.37,4.56.8,5.36,0,.7,0,1.38.07,2,0-.58,0-1.17.09-1.77a4.27,4.27,0,0,0,.29.41,1.18,1.18,0,0,0,.6.36c-.36,12.15-2.65,41.3-5.74,63.94,1.43-1,2.88-1.94,4.37-2.9,2-21.23,3.4-45,3.48-61.11a1.38,1.38,0,0,0,.27-.16A3.74,3.74,0,0,0,72,179.3a47,47,0,0,1-.31,5.26,33.88,33.88,0,0,0,.82-7.68,33.55,33.55,0,0,0,.26-3.69,48.55,48.55,0,0,1,.85,13.08,48.07,48.07,0,0,0,.37-10.8,42.07,42.07,0,0,1,1.91,13.38,58.57,58.57,0,0,0,.38-8c.53,2.27.9,4.15,1,4.65-.08-.81-.57-5-1.21-8.44,0-.42-.09-.82-.14-1.21,2.33,2.71,3.54,7.47,3.94,11.91a39.62,39.62,0,0,0,0-8.65c1.78,2.92,2.31,6.59,2.46,9.88a22.32,22.32,0,0,0-3.23-15.91c3,2,4.77,4.72,6.31,9.2a16.3,16.3,0,0,0-4.57-10.41,11,11,0,0,1,5.66,7,13,13,0,0,0-6.66-10A13.67,13.67,0,0,1,87.72,175.18Z" style="fill:#e0e0e0"></path><path d="M451.76,173.68a14.41,14.41,0,0,1,9.43-4.9,13.7,13.7,0,0,0-8.95,9,11.62,11.62,0,0,1,7.29-6.06,17.25,17.25,0,0,0-6.87,9.84c2.52-4.32,5-6.82,8.43-8.24a23.52,23.52,0,0,0-6.61,15.82c.83-3.38,2.13-7.07,4.57-9.73-1,2.74-1.33,5.71-1.8,9,1.33-4.51,3.56-9.19,6.53-11.52-.13.39-.26.8-.39,1.22-1.33,3.33-2.63,7.36-2.95,8.39.26-.62,1-2.39,2-4.51a59.5,59.5,0,0,0-1.25,8.34,44.48,44.48,0,0,1,4.72-13.45A50.32,50.32,0,0,0,464,188.06a51.29,51.29,0,0,1,3.56-13.38,39,39,0,0,0-.49,3.87,35.27,35.27,0,0,0-.72,8.13,44.73,44.73,0,0,1,.76-5.51,4,4,0,0,0,.51,1.63,1.36,1.36,0,0,0,.25.22c-5.23,21.56-8.59,53.78-10.31,79.11,1.63,1.51,3.19,3.06,4.71,4.62H463c.46-25,4.6-68.11,7.12-83.23a1.24,1.24,0,0,0,.7-.25,4.38,4.38,0,0,0,.39-.36c-.08.63-.17,1.25-.27,1.85.18-.67.34-1.38.49-2.09.61-.75,1.19-2,1.93-5.39A43.58,43.58,0,0,1,472.1,188a29.85,29.85,0,0,0,1.91-5.51c0,1.54-.08,3-.16,4.25a42.56,42.56,0,0,0,1-8.17c.62,5.25-1.46,14.9-1.56,15.42a96.39,96.39,0,0,0,3.39-12.29,75.7,75.7,0,0,1,.28,8.16,47.94,47.94,0,0,0,.74-8.42,21.91,21.91,0,0,1,1,10.69,30.84,30.84,0,0,0-.17-14.34c2.9,4.67,2.42,12.34,2.09,17.17,1.26-6.28,1.78-13.24-.87-19.26a19.16,19.16,0,0,1,4.3,9.62,30.08,30.08,0,0,0-1.16-6.92,19.59,19.59,0,0,1,2.3,11.71,25.14,25.14,0,0,0-1.65-14,22.88,22.88,0,0,1,4.3,7.32,35.64,35.64,0,0,0-1.41-7,19.1,19.1,0,0,1,2.64,8.32c.62-5.21-.94-11.82-4.89-15.4,2.8.73,4.28,3,5.16,6.19a15.11,15.11,0,0,0-1.73-6,11.11,11.11,0,0,1,2.69,6.05c.21-4.92-1.78-9.34-6.17-11.21a13.32,13.32,0,0,0-3.13-.91c2.5-.42,5.29.83,7.45,2-2.53-2.07-5.23-3.54-8.59-3.44,3.9-2.19,7.39-.45,10.06,2.6-1.51-2.78-3.84-5.45-7.16-5.84a9.45,9.45,0,0,0-5.28,1c1.14-1.48,2.59-2.65,4.37-2.61-2.1-1.46-4.29-.33-6,1.19a9.54,9.54,0,0,1,3.32-4.39,8.52,8.52,0,0,0-3.88,3,16.76,16.76,0,0,1,3-4.65,11.29,11.29,0,0,0-5,5,29.8,29.8,0,0,1,2.06-8.06,20.61,20.61,0,0,0-3.56,9.33,21.26,21.26,0,0,0-3-4.86c0,.14.44,1.28.85,2.75a6,6,0,0,0-5.35-2.82c3.56.33,4.88,4,5.5,7.25-3.08-5-8.4-5.43-13.71-2.28,3.79-1.53,6.69-1.46,9,.55a7.7,7.7,0,0,0-5.36.23,6.39,6.39,0,0,1,5.22,1.51,13.29,13.29,0,0,0-7.39-.63,9.31,9.31,0,0,1,5.28,1.25c-4.51-.4-9.61,3.13-10.79,7,2.81-3.53,7.77-6.43,12.54-3.78a11,11,0,0,0-9.34,3A8.78,8.78,0,0,1,462,166.3C457.52,167.28,453.08,170.36,451.76,173.68Z" style="fill:#e0e0e0"></path><path d="M447.65,177.59a34.37,34.37,0,0,0-2.6-6.28,18.18,18.18,0,0,1,4,7.25c-.38-5-3-10.82-7.38-13.42,2.74.17,4.53,2,5.93,4.8a14.15,14.15,0,0,0-2.72-5.28,10.52,10.52,0,0,1,3.62,5.12c-.71-4.6-3.37-8.35-7.8-9.28a13,13,0,0,0-3.07-.27c2.24-.85,5.07-.19,7.28.48-2.73-1.47-5.51-2.34-8.61-1.62,3.21-2.76,6.78-1.78,9.82.56-1.92-2.3-4.57-4.36-7.72-4.1a8.82,8.82,0,0,0-4.72,1.94c.79-1.58,1.92-2.94,3.58-3.23-2.22-1-4.05.48-5.35,2.21a9,9,0,0,1,2.28-4.69,8.07,8.07,0,0,0-3.05,3.52,15.56,15.56,0,0,1,1.91-4.87,10.65,10.65,0,0,0-3.71,5.53,28.34,28.34,0,0,1,.42-7.87,19.69,19.69,0,0,0-1.58,9.32,20.2,20.2,0,0,0-3.7-4c.07.12.63,1.11,1.29,2.4a5.69,5.69,0,0,0-5.49-1.63c3.37-.35,5.27,2.82,6.45,5.72-3.79-4.08-8.81-3.49-13.17.41,3.25-2.13,5.95-2.59,8.46-1.14a7.25,7.25,0,0,0-4.94,1.2,6.07,6.07,0,0,1,5.13.43,12.41,12.41,0,0,0-7,.79,8.75,8.75,0,0,1,5.13.18c-4.26.46-8.35,4.68-8.73,8.52,2-3.8,6-7.41,11-5.82a10.45,10.45,0,0,0-8.14,4.47,8.39,8.39,0,0,1,6-2.55c-4,1.73-7.53,5.41-8.14,8.75a13.67,13.67,0,0,1,7.86-6.3,13,13,0,0,0-6.66,10,11,11,0,0,1,5.66-7,16.3,16.3,0,0,0-4.57,10.41c1.54-4.48,3.35-7.25,6.31-9.2A22.32,22.32,0,0,0,417.65,189c.15-3.29.68-7,2.46-9.88a39.62,39.62,0,0,0,0,8.65c.4-4.44,1.61-9.2,3.94-11.91,0,.39-.1.79-.14,1.21-.72,3.84-1.23,8.58-1.23,8.58s.4-2.12,1-4.79a58.57,58.57,0,0,0,.38,8A42.07,42.07,0,0,1,426,175.47a48.07,48.07,0,0,0,.37,10.8,48.55,48.55,0,0,1,.85-13.08,33.55,33.55,0,0,0,.26,3.69,33.88,33.88,0,0,0,.82,7.68,47,47,0,0,1-.31-5.26,3.74,3.74,0,0,0,.78,1.42,1.38,1.38,0,0,0,.27.16c.08,16.31,1.45,40.37,3.54,61.76,1.5,1,3,2,4.41,3-3.14-22.73-5.47-52.36-5.84-64.64a1.18,1.18,0,0,0,.6-.36,4.27,4.27,0,0,0,.29-.41c0,.6.08,1.19.09,1.77,0-.66.07-1.34.07-2,.43-.8.74-2.1.8-5.36a41.69,41.69,0,0,1,.86,10.2,27.85,27.85,0,0,0,.76-5.47c.27,1.43.47,2.79.64,4a40.87,40.87,0,0,0-.57-7.78c1.55,4.77,1.39,14.15,1.39,14.63a88.2,88.2,0,0,0,.89-12.05,72.57,72.57,0,0,1,1.77,7.52,45.08,45.08,0,0,0-.87-8,20.68,20.68,0,0,1,2.92,9.75A29.35,29.35,0,0,0,438,174.08c3.55,3.8,4.51,11,5.1,15.57,0-6.07-.79-12.64-4.36-17.75a18.26,18.26,0,0,1,5.77,8.16,28.59,28.59,0,0,0-2.35-6.22,18.55,18.55,0,0,1,4.29,10.46,23.71,23.71,0,0,0-4.12-12.71A21.57,21.57,0,0,1,447.65,177.59Z" style="fill:#e0e0e0"></path></g></g><g id="freepik--Floor--inject-242"><g id="freepik--Beach--inject-242"><ellipse id="freepik--floor--inject-242" cx="249.53" cy="335.97" rx="244.18" ry="140.98" style="fill:#ffbda7"></ellipse><ellipse id="freepik--floor--inject-242" cx="249.53" cy="335.97" rx="244.18" ry="140.98" style="fill:#fff;opacity:0.1"></ellipse><path d="M422.19,435.65c58.83-34,81.35-80.94,67.6-124.88a27.09,27.09,0,0,0-11,4.59c-4.73,3.26-8.65,7.54-12.75,11.56a111.85,111.85,0,0,1-22,17.21c-13.85,8.05-33.47,8.63-49.1,10-14.94,1.29-30.06,2.5-44.28,7.26S323,374.92,315.76,388.05c-4.71,8.52-7.63,17.94-12.26,26.49s-11,13.53-19.71,15.69c-4.36,1.08-13.3,1.59-19.7,1.42-15.14-.4-30.28-3.76-45.38-4.89-24.82-1.85-35.09,2.66-40.15,3.86A83.33,83.33,0,0,0,145.76,446c-4.79,3.79-9.35,7.94-14.58,11.1-.81.5-1.64,1-2.48,1.4C221.91,489.18,342.66,481.57,422.19,435.65Z" style="fill:#04D9C4;opacity:0.30000000000000004"></path><path d="M422.19,435.65c46.09-26.61,69.9-61.21,71.44-96.08-8.92,9.41-17,14.83-34.4,20.79-9.49,3.24-15.82,5.8-37.79,6.84-12.37.58-25,1.16-37.47.94-15.56-.28-36.13,5.16-46,18.25l-.08.1c-7.46,8.42-13.16,20-20,35.7a33.89,33.89,0,0,1-12.48,15.47,44.13,44.13,0,0,1-20,7.6c-5.63.65-11.32.19-17-.26l-37.29-3c-15.91-1.28-33.45-.42-48.22,6.16-9.73,4.34-18.11,11-26,18.3C245.33,487.31,350.5,477,422.19,435.65Z" style="fill:#04D9C4;opacity:0.5"></path><path d="M422.19,435.65c28.3-16.33,48.19-35.68,59.7-56.25-2.35.66-4.72,1.22-7.12,1.7-3.42.69-6.87,1.21-10.32,1.59-15.36,1.7-30.89,1-46.32,1.86a217.75,217.75,0,0,0-36.82,5.33c-11.49,2.68-20.34,9.53-28.6,17.63-7.48,7.33-10.61,18.33-14.7,27.68-5.45,12.51-14,23.49-24,26.27-12.48,3.48-25.63,1.78-38.23-.09-11.31-1.67-22.88-3.84-34.12-4.65-22.63-1.63-42.39,2.84-59.28,14.81C264.85,485.1,357.26,473.14,422.19,435.65Z" style="fill:#04D9C4"></path><path d="M325,376.28c-15.27,11.85-16.52,35.71-30.34,47.45-11.68,9.93-29.75,7.72-77.72,2.9,0,0,35,5.18,54,6,14.66.64,22.28-1.43,31.27-12.14C311.85,409,311.71,390.86,325,376.28Z" style="fill:#fafafa"></path><path d="M126.94,457.92c1.8.61,3.6,1.19,5.42,1.77a82.57,82.57,0,0,0,10.3-8.77c11.1-10.54,25.94-17.87,34.27-19.9-11,1.75-23.72,6.3-38.58,19.18A54.61,54.61,0,0,1,126.94,457.92Z" style="fill:#fafafa"></path><path d="M363.71,398.09s12.06-10.48,34.28-14.23c21.82-3.68,62.3,1.33,79.23-3.28,0,0-11.9,5.81-42.9,5.81C396.73,386.39,388.28,384.48,363.71,398.09Z" style="fill:#fafafa"></path><path d="M480.6,314.22c-8.12,3.13-15.64,13.69-26.25,21.76-9.72,7.39-24.1,15.52-57.56,18,0,0,22.64.49,38.79-4.95s21.8-11.15,27.29-17.37C472.43,320.79,477.76,315.72,480.6,314.22Z" style="fill:#fafafa"></path><path d="M237.21,442.49c-3.6-.29-18.76-3-32.2-1s-24.26,5.39-35.36,14.49c0,0,13.14-8.13,27.56-11.15A137.78,137.78,0,0,1,237.21,442.49Z" style="fill:#fafafa"></path><path d="M360,371.86c-5.17,2-14.48,5.46-22.72,16.57s-11.48,18.95-16.68,30.78-12.12,16.15-12.12,16.15,7.46-9.17,11.22-19.56,8.6-21,16.67-29.74S350.71,374.27,360,371.86Z" style="fill:#fafafa"></path><path d="M491,339c-5.57,6.53-26.51,22.77-60.88,27.61,0,0,10.95.62,30.34-4.95s28.67-14.47,32.94-18.73q.3-3.48.3-7C492.88,336.89,492,337.89,491,339Z" style="fill:#fafafa"></path><path d="M205.59,460.18c8.44-5.27,21.47-6.17,40.21-4.5s53.56,10,69.86,5.24c0,0-5.93,4.44-27.41,3-19.53-1.29-45.4-6.44-58.57-6.46C211.45,457.45,205.59,460.18,205.59,460.18Z" style="fill:#fafafa"></path></g></g><g id="freepik--Sun--inject-242"><circle id="freepik--sun--inject-242" cx="402.69" cy="48.93" r="20.31" style="fill:#f0997a"></circle></g><g id="freepik--Clouds--inject-242"><path id="freepik--Cloud--inject-242" d="M211,37c0-3.13-3.43-5.31-7.32-5.68-4.59-.43-7.84,1.61-7.95,5.22-3-1.23-6.16-.44-5.92,2.86-.78-.9-3.7-.88-4.74-.62A4.08,4.08,0,0,0,182.48,41a3.09,3.09,0,0,0-.28,1.69c-1.74-.58-5.72-.93-6.71.68-1.77,2.85,5.3,2.94,6.72,2.08.3,2.22,7.9,2.58,9.74.53,1.44,1.45,3.5,1.77,5.73,1.9,3.76.23,6.06-1.05,9-2.54,3.19,2.7,8.7,2.75,11.58-.34.73.69,2.75.9,4.36.52,1.07-.26,1.31-.71,1.31-.71a9.7,9.7,0,0,0,2,.59c2.08.43,6,0,4.33-1.9a4.87,4.87,0,0,0-3.44-.85c-.91-1.79-4.55-3.48-6.65-2-.08-2.17-2.06-3.86-4.85-4.29C214.33,36.2,212.09,36.08,211,37Z" style="fill:#f5f5f5"></path><path id="freepik--cloud--inject-242" d="M69.82,57.79c0-3.14-3.44-5.32-7.33-5.68-4.59-.44-7.84,1.61-8,5.22-3-1.23-6.16-.44-5.92,2.85-.78-.9-3.7-.87-4.74-.62a4.08,4.08,0,0,0-2.61,2.22A3,3,0,0,0,41,63.47c-1.75-.57-5.73-.92-6.72.68C32.51,67,39.58,67.09,41,66.23c.31,2.22,7.9,2.59,9.74.54,1.44,1.45,3.5,1.76,5.73,1.9,3.76.22,6.06-1,9-2.55,3.19,2.7,8.71,2.75,11.58-.34.73.69,2.75.91,4.37.52,1.06-.25,1.3-.71,1.3-.71a9.09,9.09,0,0,0,2,.59c2.09.44,6,0,4.34-1.9a4.91,4.91,0,0,0-3.45-.85c-.9-1.79-4.55-3.48-6.65-2-.08-2.16-2.06-3.86-4.84-4.29C73.12,57,70.88,56.9,69.82,57.79Z" style="fill:#f5f5f5"></path><path id="freepik--cloud--inject-242" d="M440.91,107.32c0-3.13-3.44-5.31-7.33-5.68-4.58-.43-7.84,1.61-7.95,5.22-3-1.23-6.15-.44-5.92,2.86-.78-.9-3.69-.88-4.74-.63a4.09,4.09,0,0,0-2.61,2.23,3,3,0,0,0-.27,1.68c-1.75-.57-5.72-.92-6.72.68-1.77,2.86,5.3,2.95,6.73,2.09.3,2.22,7.89,2.58,9.73.53,1.44,1.45,3.5,1.77,5.73,1.9,3.76.22,6.06-1,9-2.55,3.18,2.71,8.7,2.76,11.57-.34.73.7,2.75.91,4.37.52,1.06-.25,1.3-.7,1.3-.7a9.09,9.09,0,0,0,1.95.58c2.09.44,6,0,4.34-1.9a4.88,4.88,0,0,0-3.44-.84c-.91-1.79-4.56-3.49-6.65-2-.09-2.17-2.07-3.86-4.85-4.3C444.21,106.56,442,106.44,440.91,107.32Z" style="fill:#f5f5f5"></path><path id="freepik--cloud--inject-242" d="M341.1,68.87a8.39,8.39,0,0,0-2.87-.53c-.93-.07-1.23-.26-1.41-.46a6.86,6.86,0,0,0-8.24-2.44,5.27,5.27,0,0,0-6.22-3.51c.1-2.9-3.6-6-6.92-6.72s-6-.39-7.79,1.7c-1.95-3.8-9.58-4.87-13.71-2.86-2.38,1.16-4.39,2.35-5.38,4.52a9.08,9.08,0,0,0-.89,4.33c-1.61-1.42-4.83-1.8-7-1-2.32.9-2.5,2.64-2.61,4.42a8.22,8.22,0,0,0-4.22-.08c-1.46.44-2.31,1.58-2.1,2.51-1.16-.06-3.91.87-3.6,2.09s3.5,1.23,4.68,1.19a22.26,22.26,0,0,0,3.28-.52,5.14,5.14,0,0,0,1.71.33c2,0,2.85-.88,3.17-1.62,1,2.06,4.46,3.62,6.92,4.25,4.62,1.19,11.17.47,14-3a5.22,5.22,0,0,0,1.38,1.68,8,8,0,0,0,4.29,1.73c1.9.18,7,.42,8.43-2.6,1,2,5.56,2.93,9,2.43a14.17,14.17,0,0,0,3.86-1.16,22.68,22.68,0,0,0,2.23-1.34,1.87,1.87,0,0,1,1.89-.13,11.28,11.28,0,0,0,7.54,0C342.51,71.31,342.91,69.69,341.1,68.87Z" style="fill:#f5f5f5"></path></g><g id="freepik--Shells--inject-242"><g id="freepik--Starfish--inject-242"><path id="freepik--Shadow--inject-242" d="M142.84,407.06c-2.1,0-5.15-2.77-6.47-4.23-3.11-3.46-6.28-7.26-7.29-8.48-1.71.31-7.53,1.41-13.64,3.06l-1.46.4a21.68,21.68,0,0,1-4.83,1,2,2,0,0,1-1.9-.9c-.5-.88-.16-2.13,1.11-4.19,2.65-4.31,8.29-7.56,11.07-9a73,73,0,0,0-8.36-3.77c-1.3-.46-3-1.23-3-2.64,0-.69.48-1.66,2.64-2.34a26.09,26.09,0,0,1,6.6-.74c.91,0,1.8,0,2.63.11,6.76.62,10.22,1.74,11.44,2.22a26.64,26.64,0,0,1,16.14-5.48c2.16,0,3.35.34,3.86,1.08a1.49,1.49,0,0,1,.12,1.42c-.41,1-1.51,1.88-2.89,2.94a27.69,27.69,0,0,0-4.78,4.4l1.3.48a73.2,73.2,0,0,1,11.59,5.08c3.06,1.74,4.31,3.2,4,4.58-.45,1.69-3.13,2.05-5.3,2.05H155l-2.31,0c-3.37,0-7.8.09-9.84.14.39,1.59,1.15,4.85,1.91,9.24a3.51,3.51,0,0,1-.41,2.92A1.85,1.85,0,0,1,142.84,407.06Z" style="opacity:0.15"></path><g id="freepik--starfish--inject-242"><path d="M121.38,382.14a78.13,78.13,0,0,0-10-4.65c-3.64-1.29-2.64-2.59-.38-3.3a27.72,27.72,0,0,1,8.88-.59c8.51.78,11.65,2.35,11.65,2.35s5.9-4.76,13.23-5.46c2.82-.27,6.52-.31,5.94,1.14-.74,1.84-4.83,3.38-8.27,8,1.58.77,7.94,2.57,13.87,5.95,6.22,3.55,3.32,5.06-1.3,5-4.25-.09-13.31.14-13.31.14s1.08,3.9,2.18,10.25c.87,5-4.18,1.54-6.83-1.4-3.79-4.2-7.6-8.85-7.6-8.85s-6.85,1.18-14.22,3.17c-5.27,1.42-9.44,3-6.1-2.37S121.38,382.14,121.38,382.14Z" style="fill:#f28f8f"></path><path d="M137.3,397.23c-2-2.26-7-9.45-7-9.45s-14.11,3.93-17.64,5-4.55.62-4.16-.24c-2.22,4.22,1.73,2.71,6.66,1.39,7.37-2,14.22-3.17,14.22-3.17s3.81,4.65,7.6,8.85c2,2.19,5.26,4.66,6.47,3.73C141.41,403.19,139.26,399.48,137.3,397.23Z" style="fill:#b16668"></path><path d="M159.77,389.3c-1.18.76-2.86.47-7.26-.05S141,387.78,141,387.78l.68,3s9.06-.23,13.31-.14C157.45,390.64,159.4,390.23,159.77,389.3Z" style="fill:#b16668"></path><path d="M110.07,374.54c-1.48.69-1.79,1.86,1.3,2.95a78.13,78.13,0,0,1,10,4.65l2.9-1.45s-4.09-1.77-8.18-3.06C112.35,376.45,108.82,375.62,110.07,374.54Z" style="fill:#b16668"></path><path d="M142.42,379.67c3.44-4.66,7.53-6.2,8.27-8a.62.62,0,0,0-.26-.81h0s.6.77-2.71,2.18a25.68,25.68,0,0,0-6.72,5C140.19,379.05,142.42,379.67,142.42,379.67Z" style="fill:#b16668"></path></g></g><g id="freepik--starfish--inject-242"><path id="freepik--shadow--inject-242" d="M71.49,344.6c-2.1,0-5.15-2.77-6.47-4.23-3.12-3.46-6.29-7.26-7.3-8.48-1.71.31-7.52,1.42-13.63,3.06l-1.46.4a21.24,21.24,0,0,1-4.83,1,2,2,0,0,1-1.91-.91c-.49-.88-.16-2.13,1.11-4.19,2.65-4.3,8.29-7.56,11.07-9a69.42,69.42,0,0,0-8.35-3.77c-1.3-.46-3-1.24-3-2.65,0-.69.48-1.66,2.65-2.34a26,26,0,0,1,6.6-.74c.91,0,1.79,0,2.63.12,6.76.61,10.21,1.73,11.44,2.21a28.34,28.34,0,0,1,13.27-5.32c1.06-.1,2-.15,2.86-.15,2.17,0,3.36.33,3.86,1.07a1.5,1.5,0,0,1,.13,1.43c-.42,1-1.51,1.87-2.89,2.93a28.12,28.12,0,0,0-4.79,4.4l1.31.48a74,74,0,0,1,11.59,5.08c3.05,1.74,4.31,3.2,3.94,4.58-.45,1.69-3.12,2.05-5.29,2.05h-.41l-2.31,0c-3.37,0-7.81.09-9.85.14.4,1.59,1.15,4.85,1.92,9.24A3.49,3.49,0,0,1,73,344,1.82,1.82,0,0,1,71.49,344.6Z" style="opacity:0.15"></path><g id="freepik--starfish--inject-242"><path d="M50,319.68A78.46,78.46,0,0,0,40,315c-3.64-1.3-2.63-2.6-.37-3.31a27.69,27.69,0,0,1,8.88-.59c8.5.78,11.64,2.35,11.64,2.35s5.9-4.76,13.23-5.46c2.83-.27,6.53-.31,6,1.14-.74,1.84-4.84,3.38-8.28,8,1.58.77,7.94,2.57,13.88,6,6.21,3.55,3.31,5.06-1.31,5-4.24-.08-13.3.14-13.3.14s1.07,3.9,2.18,10.26c.87,5-4.18,1.54-6.83-1.41-3.79-4.2-7.61-8.85-7.61-8.85s-6.84,1.19-14.21,3.17c-5.28,1.42-9.44,3-6.1-2.36S50,319.68,50,319.68Z" style="fill:#f28f8f"></path><path d="M65.94,334.77c-2-2.26-6.95-9.45-6.95-9.45s-14.1,3.93-17.63,5-4.56.62-4.16-.24c-2.22,4.22,1.73,2.71,6.66,1.39,7.37-2,14.21-3.17,14.21-3.17s3.82,4.65,7.61,8.85c2,2.19,5.26,4.66,6.46,3.74C70.06,340.73,67.91,337,65.94,334.77Z" style="fill:#b16668"></path><path d="M88.42,326.84c-1.18.76-2.86.47-7.26,0s-11.52-1.48-11.52-1.48l.69,2.95s9.06-.22,13.3-.14C86.09,328.18,88.05,327.77,88.42,326.84Z" style="fill:#b16668"></path><path d="M38.72,312.08c-1.48.69-1.79,1.86,1.29,3a78.46,78.46,0,0,1,10,4.64l2.9-1.45s-4.09-1.77-8.19-3.06C41,314,37.46,313.16,38.72,312.08Z" style="fill:#b16668"></path><path d="M71.06,317.21c3.44-4.66,7.54-6.2,8.28-8a.61.61,0,0,0-.26-.8h0s.6.76-2.71,2.17a25.59,25.59,0,0,0-6.73,5C68.83,316.6,71.06,317.21,71.06,317.21Z" style="fill:#b16668"></path></g></g><g id="freepik--Shell--inject-242"><path id="freepik--shadow--inject-242" d="M74.67,391.61a1.22,1.22,0,0,1-.92-.42c-.59-.64-.78-2.51-.57-5.55A87.54,87.54,0,0,1,58,387.47a14,14,0,0,1-6.25-1A6.79,6.79,0,0,1,48,381.92c-.51-2.21.17-4.89,1.88-7.45-.71-1.24-1.59-4.1,1.43-8.46a9.43,9.43,0,0,1,8-4.27,10.84,10.84,0,0,1,1.73.14c.86-1.12,3.13-3.24,7.87-3.24a18.38,18.38,0,0,1,2.18.14,6.63,6.63,0,0,1,4.5,2.85c3,4,4,11.8,3.39,17.64a20,20,0,0,1,3.51-.36,5.4,5.4,0,0,1,3.36.84,1.53,1.53,0,0,1,.63,1.52c-.31,1.6-3.87,3-7,3.91-.86,1.64-2.92,5.44-4.18,6.22A1.31,1.31,0,0,1,74.67,391.61Z" style="opacity:0.15"></path><g id="freepik--shell--inject-242"><path d="M75.26,382.41s-17,3.8-22.05,1.16-3.65-7.64-1.12-11.08c0,0-2.62-2.63,1-7.9A8.76,8.76,0,0,1,62.53,361s2-4.14,9.48-3.23c6.2.77,8.09,13.26,6.84,20.77,0,0,5.58-1.43,7.44,0s-6.43,3.81-6.43,3.81-2.77,5.44-4,6.22S75.26,382.41,75.26,382.41Z" style="fill:#fff"></path><path d="M59.24,382.71c-6.49-.66-8.86-3.27-9.32-5.39a5.62,5.62,0,0,0,3.29,6.25c5,2.64,22.05-1.16,22.05-1.16s-.21,2.32-.16,4.13a20.25,20.25,0,0,1,1.19-5.11S66.68,383.46,59.24,382.71Z" style="opacity:0.1"></path><path d="M52.09,372.49s6.65-1.27,16.1,4A28,28,0,0,0,57.36,371c-6.73-1.75-4.23-6.45-4.23-6.45C49.47,369.86,52.09,372.49,52.09,372.49Z" style="opacity:0.1"></path><path d="M75,373.54c-3.78-9.28-8.88-12-8.06-13.57,1.21-2.32,5-2.19,5-2.19-7.43-.91-9.48,3.23-9.48,3.23C70.8,364.46,75,373.54,75,373.54Z" style="opacity:0.1"></path></g></g></g><g id="freepik--character-2--inject-242"><g id="freepik--Character--inject-242"><g id="freepik--Bottom--inject-242"><path d="M291.66,201.3c1.62,1.67,9.13,10.59,13.17,14.61s8.9,6.2,11,6.1,4.5-2.09,10.77-9,10-11.9,10-11.9l4.81-25.46c-4.28,0-10.12,1.92-12.78,6.12-2.27,3.59-15.08,22.18-15.08,22.18s-6.32-4.47-8.08-5.79c-2.44-1.83-4-2.93-5.18-4.55-1-1.45-1.15-3.1-1.42-6.05s-.84-6.31-.88-7.85c-.05-2.06-1.47-2.18-2.69-.2a10.37,10.37,0,0,0-1.28,4.75c-.21,1.8-.7,1.46-1.67.27s-5.56-7.15-7.21-8.88-2.95-1.49-3.51-.72c-.31.44.54,1.48,2.54,4.2s4.18,5,4,5.16-2.27-2.36-4.66-4.83c-2.2-2.27-3.5-3.4-4.85-3.4-1.55,0-1.74,1.15-1.35,1.53a66.63,66.63,0,0,1,5.19,5.33,28.72,28.72,0,0,1,2.67,3.29c-.14.28-1.91-1.49-4.44-3.3-2.3-1.65-3.64-2.39-5.1-1.78a.78.78,0,0,0-.48.79c.18.62,1.64,1.76,2.73,2.69a28.41,28.41,0,0,1,3.39,3.07c.71.81,1.52,1.6,1.43,1.76s-4.08-2.76-5.57-3.12c-1.31-.32-2.31.23-1.24,1.45.92,1.07,6.95,6,9.16,7.91S289.66,199.23,291.66,201.3Z" style="fill:#ffa8a7"></path><path d="M313.53,203.93a11.33,11.33,0,0,1,3.77,9.67,12.12,12.12,0,0,0-2.58-11.39Z" style="fill:#f28f8f"></path><path d="M293.09,187.3c-1.45,2-1.1,6.47.33,8.5C290.27,194,290.58,188.66,293.09,187.3Z" style="fill:#f28f8f"></path><path d="M396.13,240.65c-4.09-.52-6,.19-8.87.55s-7.17-.28-9.62-.51c-3.43-.33-5.29,2.21-6.2,4.88a12.62,12.62,0,0,1-7.48,7.78c-7.35,2.78-15.88,5.75-15.88,5.75l-18.37,16.14c7.58,2.06,20.78.47,31.24-4.78,6.19-3.11,11.43-7.25,16.86-11a33.88,33.88,0,0,1,6.52-3.84c3.17-1,7.71-2.68,11.85-4.39l0,0c3.18-1.17,6.31-2.86,7.78-4.37h0C404.93,245.69,401.32,241.32,396.13,240.65Z" style="fill:#ffa8a7"></path><path d="M304,250.26c.88-5.34,6.12-12.13,11.19-16.85,6.78-6.31,14.24-13.1,14.24-13.1l6.91-2.18h0l38.51-7.24c2.41,5.13,5.47,14.26,5.36,21.66-.1,6.9-1.58,16.56-13.8,25.33-7.4,5.32-10.49,9.16-16,11.95-6,3-14.22,8-22.71,4.78-4.9-1.88-8.1-5-8-10.47h0c-1,.58-7,1.55-11-.81C304.86,261.15,303.08,255.79,304,250.26Z" style="fill:#ffa8a7"></path><g id="freepik--Chest--inject-242"><path d="M329.42,220.31a57.88,57.88,0,0,1,3-11.95c-.53-7.36-.5-7.66-.67-14.89-.15-6.23,1.12-14.48,9.5-17.31s11.86-2.64,17.72-1.87c6.74.88,9.89,1.59,9.89,1.59a17.38,17.38,0,0,1,7.9,10.85c2.36,10.37,4,35.82,3.4,45.47-18.8-10.8-35.75,5.24-35.75,5.24C335.11,235.57,330.41,225.52,329.42,220.31Z" style="fill:#04D9C4"></path></g><path d="M317.11,264.72a8.19,8.19,0,0,0,2.48-.58c1.64-9.27,11.24-16,24.86-26.7-5.53-1.24-10.69-7.38-10.69-7.38.82,4.88,3.16,7.18,5.13,8.38-3.05,2.64-8.82,5.89-13.71,11.34C321.92,253.41,317.68,258,317.11,264.72Z" style="fill:#f28f8f"></path><path d="M345.47,268.34c4.79.53,14.24-2.55,19.86-7.3,1.78-1.51,12.63-8.58,13.83-20.29-2.45,8.85-12.42,17.86-19.13,21.6S350.9,266.9,345.47,268.34Z" style="fill:#f28f8f"></path></g><g id="freepik--Top--inject-242"><path d="M368.9,175.88c8.84,1.31,12.54,2.22,15.35,7.62s7.82,19.22,10.59,27.34c2.38,7,3.59,14.11.9,17.15l-15.69-5.06-9.15-21.78S364.3,183.58,368.9,175.88Z" style="fill:#ffa8a7"></path><path d="M377.71,212.13c1.44,1.67,3,2.24,6.32,3.46,3.12,1.14,6.71,2.17,8.8,5.26-.79-3-2.57-4.3-6.48-6.08s-9.61-3.77-9.61-3.77Z" style="fill:#f28f8f"></path><path d="M377.71,212.13c1.44,1.67,3,2.24,6.32,3.46,3.12,1.14,6.71,2.17,8.8,5.26,1.84,2.73,4.59,5,2.91,7.14-1,1.27-3.44,3.17-8.71,2.86-4-.24-7-3-11.22-5.46-3.65-2.14-5.58-3.54-5.58-3.54Z" style="fill:#ffa8a7"></path><path d="M371.07,215.16c1.43-1.52,1.65-3,3.79-4.35s3.52-1.32,5.8-2.58,4.15-1.94,5.93-1.43,1.53,1.53.24,2.41-3.52,2-5.05,3.24-3,1.9-3,3.89a88.45,88.45,0,0,0,1,9.41c.54,3.33,1.29,6,1.05,6.38s-1.66.58-2.61-1.26-2.31-8.59-2.31-8.59-.49,4.74-.64,8-.18,5.74-.25,6.44-2.39.24-2.84-2.2-.22-9.71-.22-9.71l-3,5.55c-1.16,2.19-2.58,5.15-3.06,5.89s-2-.49-1.69-2.45S366.9,227,366.9,227s-2.91,3.26-3.43,3.59-2.13.12-1.65-2c.32-1.45,1.21-2.4,3.54-5.25s2.26-4,3-5.3C369.27,216.28,370,216.27,371.07,215.16Z" style="fill:#ffa8a7"></path><path d="M372.21,234.51a19.5,19.5,0,0,1-.29-2.42c-.05-.81-.1-1.62-.12-2.43,0-1.62,0-3.24,0-4.87l.4.11-2.79,5.3-2.75,5.32-.37.66a1.09,1.09,0,0,1-.29.36.64.64,0,0,1-.51.12,1.76,1.76,0,0,1-1.18-1.15,3.09,3.09,0,0,1-.2-1.56,7.38,7.38,0,0,1,.37-1.49A45.49,45.49,0,0,1,366.9,227a57.29,57.29,0,0,0-2.15,5.58,3.85,3.85,0,0,0-.09,2.79c.18.4.52.82.87.88.17,0,.22,0,.36-.27l.35-.65c.92-1.76,1.76-3.58,2.72-5.34l2.85-5.27a.2.2,0,0,1,.28-.09.22.22,0,0,1,.12.19c-.08,1.62-.12,3.24-.14,4.86A35.68,35.68,0,0,0,372.21,234.51Z" style="fill:#f28f8f"></path><path d="M371.07,215.16c.9-.92,1.44-2.11,2.3-3.06a8.57,8.57,0,0,1,3.16-2.06c1.17-.48,2.42-.81,3.57-1.4a22,22,0,0,1,3.46-1.58,4.86,4.86,0,0,1,3.62.14.94.94,0,0,1,.51.59,1,1,0,0,1-.31.73,7.12,7.12,0,0,1-1.51,1.09c-1.08.66-2.2,1.3-3.27,2-.53.35-1,.76-1.55,1.13a13.22,13.22,0,0,0-1.51,1.22,3.15,3.15,0,0,0-.91,1.78,12.57,12.57,0,0,0,0,2c.09,1.28.21,2.55.36,3.82.29,2.54.69,5.08,1.22,7.58.13.63.26,1.25.37,1.88a5.93,5.93,0,0,1,.11.91c.06.2-.26.29-.53.3a1.94,1.94,0,0,1-1.45-.87,5.59,5.59,0,0,1-.79-1.67,75,75,0,0,1-1.89-7.4l-.18-.81-.07.82c-.23,2.4-.44,4.8-.55,7.21-.06,1.21-.08,2.41-.12,3.61l-.1,3.62.18-3.61c.06-1.2.1-2.41.19-3.61.17-2.4.4-4.8.65-7.2l-.25,0c.52,2.5,1,5,1.81,7.46a6.52,6.52,0,0,0,.84,1.77,2.26,2.26,0,0,0,1.73,1,1.31,1.31,0,0,0,.54-.11.68.68,0,0,0,.26-.2.56.56,0,0,0,.07-.18v-.15a5.17,5.17,0,0,0-.1-1c-.11-.64-.24-1.26-.37-1.89-.52-2.5-.9-5-1.18-7.55-.15-1.27-.28-2.54-.37-3.8a11.94,11.94,0,0,1-.05-1.88,2.7,2.7,0,0,1,.8-1.57,11.24,11.24,0,0,1,1.46-1.18c.52-.39,1-.79,1.54-1.14,1-.71,2.15-1.35,3.24-2a7,7,0,0,0,1.58-1.16,1.32,1.32,0,0,0,.38-1,1.21,1.21,0,0,0-.68-.82,5.09,5.09,0,0,0-3.85-.12,21.3,21.3,0,0,0-3.48,1.64c-1.13.58-2.36.93-3.54,1.44a8.78,8.78,0,0,0-3.15,2.16C372.47,213,372,214.23,371.07,215.16Z" style="fill:#f28f8f"></path><path d="M377.13,216.09c-2.38,1.15-4.78.14-5.13-.44C372.22,217.3,375.56,218.16,377.13,216.09Z" style="fill:#f28f8f"></path><path d="M361.8,229.77a1.09,1.09,0,0,0,1.51-.15c.59-.53,2-2.26,2.69-3.06l2.89-3.64-2,4.06s-2.91,3.26-3.43,3.59A1.18,1.18,0,0,1,361.8,229.77Z" style="fill:#f28f8f"></path><path d="M360.06,170.05s8-7.58,9.9-15.9c2.17-9.36.32-18.22-5.24-19.46a17,17,0,0,0-9.28-8.15c-9.89-3.25-14.73-1.35-21,2-3.31,1.78-6.24,3-9.73,7.47a16.18,16.18,0,0,0-2.54,14.39,8.73,8.73,0,0,0,7.45,6.57c2.86.47,18.39,4.22,18.39,4.22Z" style="fill:#263238"></path><path d="M364.72,134.69c3,.38,5.56,4.21,6.9,11.15,1.44,7.42,2.76,18.67-6.88,25.69s-31.25,8.66-39.22-.63c4.85-.91,9.47-6.75,6.29-16.57Z" style="fill:#263238"></path><path d="M327.31,149.64a11.76,11.76,0,0,1,.69-3.86,10.68,10.68,0,0,0,1.91.67,18.47,18.47,0,0,0,4.76.07,16.14,16.14,0,0,0,5.52-1.62,11.21,11.21,0,0,0,4.57-4.33,4.67,4.67,0,0,1-1,3.31,14,14,0,0,1-2.52,2.46,9.53,9.53,0,0,0,7.12-1.75c3.14-2.25,3.38-4.83,3.38-4.83.09.54.32,2.61.47,3.14a9.31,9.31,0,0,0,1,2.53,12.41,12.41,0,0,0,4.89,4.67,7.39,7.39,0,0,0,.35,3.46,2.42,2.42,0,0,0,.57.95,1.46,1.46,0,0,0,.24.17c1.28.68,1.08-1.44,2.17-3a3.16,3.16,0,0,1,2.53-1.25,4,4,0,0,1,4,2,6,6,0,0,1-2.93,8,4.84,4.84,0,0,1-5.28-.62l1.38,16.16s-6,14.07-18.38,12.71c-6.21-.69-2.61-8.89.25-11.11l-.41-4.48a20.41,20.41,0,0,1-6.33-.39,11.39,11.39,0,0,1-8.22-8.94c-.74-3.58-.18-5.87-.44-9C327.48,153.07,327.36,150.84,327.31,149.64Z" style="fill:#ffa8a7"></path><path d="M342.63,173.21c4.06-.6,7-1.08,11.38-4.48a12.33,12.33,0,0,0,3.84-5.86s-.49,4.64-2.13,6.76c-4.3,5.53-12.86,5.84-12.86,5.84Z" style="fill:#f28f8f"></path><path d="M345.07,148.49l4.56,1.39a2.5,2.5,0,0,0-1.64-3A2.32,2.32,0,0,0,345.07,148.49Z" style="fill:#263238"></path><path d="M348.13,153.25a2,2,0,1,1-2.1-1.81A2,2,0,0,1,348.13,153.25Z" style="fill:#263238"></path><path d="M334.33,153.71a2,2,0,1,1-2.1-1.81A1.95,1.95,0,0,1,334.33,153.71Z" style="fill:#263238"></path><path d="M329,151,333.4,149a2.31,2.31,0,0,0-3.09-1.3A2.52,2.52,0,0,0,329,151Z" style="fill:#263238"></path><path d="M345.4,161.72,340,164a2.82,2.82,0,0,0,3.75,1.66A3.09,3.09,0,0,0,345.4,161.72Z" style="fill:#b16668"></path><path d="M342.69,165.85a4.24,4.24,0,0,1,2.9-3,3.07,3.07,0,0,1-1.88,2.77A2.88,2.88,0,0,1,342.69,165.85Z" style="fill:#f28f8f"></path><polygon points="338.67 153.28 338.94 160.89 333.81 159.91 338.67 153.28" style="fill:#f28f8f"></polygon></g></g></g><g id="freepik--character-1--inject-242"><g id="freepik--character--inject-242"><g id="freepik--bottom--inject-242"><path d="M119.58,271.71c8.19,14.3,28.84,30.08,35.28,30.84-2.26-1.91-5.73-14.95-8.79-21.9l-21.68-12.53A19,19,0,0,0,119.58,271.71Z" style="fill:#b16668"></path><path d="M148.39,278S120,264,120.17,259c.08-2.19.78-8.69-4.25-10.06a8,8,0,0,0-3.53.25c-3.68.83-7.13,2.7-10.89,2.42-5-.38-9.32-4.21-14.35-4.59a15.7,15.7,0,0,0-7.72,1.32,21.13,21.13,0,0,0-7.23,5,3.47,3.47,0,0,0-.65,2.93h0c.34,1.66,6.13,4.66,9.1,6.29,5.87,3.22,18.79,9,18.79,9l0-.05c2.89,1.28,5.63,2.45,7.83,3.36,6.74,2.79,17.3,14.21,24.59,20,19.87,15.85,32.58,15.56,41.7,11.54Z" style="fill:#f28f8f"></path><path d="M207.74,267.86c-3.47-10.56-12.11-22.66-21.3-33-8.91-10.05-21.36-22.94-22.72-26.73L103.36,214c-.51,12.2-.33,17.08.85,25.32,1.31,9.19,7,19.78,20.08,35.22,8.41,9.94,12,15.29,18,21.15,6.9,6.77,18.36,14.68,29.57,11.36,10.43-3.08,13.46-11.15,11.9-17a20.14,20.14,0,0,0,15.73-.24C208.44,285.65,210.1,275,207.74,267.86Z" style="fill:#f28f8f"></path><path d="M186.33,290.93a18.41,18.41,0,0,1-2.6-.86c-3.48-16.73-32.88-46.38-32.88-46.38,2.68-1.25,13.11-7.64,15.29-15.27.74,8.53-7.94,14.21-10.6,16.09,4.35,3.68,13.3,14.52,19.08,21.6C178.77,271.19,185,283,186.33,290.93Z" style="fill:#b16668"></path><path d="M164.12,207.28c.55,2.57,10.21,12.92,12.87,15.7s22.28,24.44,28.23,38.3c-15.42-3-28.87,13.39-28.87,13.39L175.28,273s-5.4-4.35-18.61,3c-13.49,7.5-15.38,19.1-15.38,19.1s-13.52-12.81-25.36-26.7c-10.5-12.3-16.19-19.86-13.81-54.14Z" style="fill:#455a64"></path><path d="M178.69,272.15a50.05,50.05,0,0,0-4.07-6c-5.78-7.08-14.73-17.92-19.08-21.6,2.66-1.88,11.34-7.56,10.6-16.09-2.18,7.63-12.61,14-15.29,15.27,0,0,14.59,14.71,24.42,29.26h0l0,.07c.36.53.72,1.06,1.06,1.59C176.56,274.41,177.37,273.46,178.69,272.15Z" style="fill:#37474f"></path></g><g id="freepik--top--inject-242"><path d="M154.16,137.15c12.89.2,14.19,2.7,23.08,6.58,16.55,7.22,17.89,7.83,17.89,7.83l22-13.11,8.51,10.83s-10.94,10.48-20,18.57c-7.58,6.73-7.84,5.68-19.54,2.34-12-3.44-23.07-6.43-23.07-6.43Z" style="fill:#f28f8f"></path><path d="M161,146.66l-3.47.24,5.78,16.86s.67.14,2.94.89C165.84,159.27,164.17,150.21,161,146.66Z" style="fill:#b16668"></path><path d="M249.39,134.32c.64.9.79,1.85.36,2.38-.7.86-1.87.13-1.87.13s2.17,1.31,1.33,2.44-2.22.33-2.22.33,1.5.88,1,1.59c-.64.93-2.26.6-4.19-.48a11.42,11.42,0,0,1-3.51-1,7.88,7.88,0,0,1-2.63.58,3.67,3.67,0,0,0-1.39,1.64c-.45,1,0,3.48-4.48,5a6.92,6.92,0,0,1-4.16.23l7.69-17.67h10Z" style="fill:#b16668"></path><path d="M240.07,137.21a5.41,5.41,0,0,0,2.68.48l-.1,0a5.89,5.89,0,0,0,2.56,1l-.09-.05a3.13,3.13,0,0,0,1.87,1,3.57,3.57,0,0,1-1.67-1.12l0,0h-.06a7,7,0,0,1-2.43-1l0,0h0A7.41,7.41,0,0,1,240.07,137.21Z" style="fill:#9a4a4d"></path><path d="M217.09,138.45a28.61,28.61,0,0,0,8.16-8c2.41-3.28,3.61-3.94,5.79-4.35a54.61,54.61,0,0,1,7.12-.61,33.45,33.45,0,0,1,5.65.85c1.05.34,4.22,2.5,5.93,3.33s2.47,1.26,1.93,2.07-2,.72-3.26.52a5.59,5.59,0,0,1-2.14-.82,11.28,11.28,0,0,1-2.9-1,7,7,0,0,1-3.37.06,22.26,22.26,0,0,1-3.42.5l0,.1a1,1,0,0,0,.64.68,10,10,0,0,0,3.14.41c1.57-.11,2.24-.08,3.85-.24a20.63,20.63,0,0,1,4.21-.32c1,.17,2,1.06.94,2.63a5.77,5.77,0,0,1-4.15,2.29c-1.52.26-4.8.14-5.72.31a3.1,3.1,0,0,0-2.37,1.8c-.71,1.27-1.57,5.7-4.78,7.48s-3.55.29-6.77,3.08Z" style="fill:#f28f8f"></path><path d="M236.58,131.06a10.56,10.56,0,0,0-1.72-3.46,5.77,5.77,0,0,1,2.19,3.45Z" style="fill:#b16668"></path><path d="M105.92,139.29S103.3,157,102.4,166c-1.17,11.73-1.32,31.39-.28,48.18,12.12,11.25,54.45,10.24,62-6.93,1.78-7-.14-15.37-2.53-19.14.67-4.16,1-7.27-.14-11.69,2.85-4.14,3.28-11.31,3.05-14.11-1.23-15.64-7.51-24-10.34-25.19-1.79-.4-12.37-2.59-19.53-2.63-1.34,0-12.48-7.59-12.6-6.84-.66,4.3-3.76,6.93-5.49,7.5C113.92,136,110.32,137.48,105.92,139.29Z" style="fill:#f28f8f"></path><path d="M117.36,178c4,3.15,17.46,5.38,22.65,1.38C137.43,184.39,122.17,184.56,117.36,178Z" style="fill:#b16668"></path><path d="M161.9,178.57c-.12-.68-.25-1.37-.45-2.12-1.79,2.75-6,3.86-8.66,3.55A9.23,9.23,0,0,0,161.9,178.57Z" style="fill:#b16668"></path><path d="M155,205.44a3.45,3.45,0,0,0-1.12-1.43,3.15,3.15,0,0,0-.88-.39l.08-.13a2.65,2.65,0,0,1,.29-.29,3,3,0,0,0,.31-.31,1,1,0,0,0,.2-.55c.06-.48-.6-.9-1-.63a5.45,5.45,0,0,0-1.09.89,3.25,3.25,0,0,0-.66,2.85,2.32,2.32,0,0,0,.28.67,1.35,1.35,0,0,0,.48.44,2.41,2.41,0,0,0,.94.45c.28.06.25-.4.19-.56s-.07-.61-.16-.89c0-.09-.07-.18-.11-.27v-.06a1.68,1.68,0,0,1-.07-.24l0-.24h0a3,3,0,0,1,1.35.48,2.17,2.17,0,0,1,.37.31.23.23,0,0,1,.07.07c.07.07.22.37.39.35S155.08,205.59,155,205.44Z" style="fill:#b16668"></path><path d="M139.66,147.53a4.63,4.63,0,0,0-2.39-3.41,16.47,16.47,0,0,0-4.64-1.3c-.71-.13-1.4-.32-2.11-.45-1.06-.2-2.12-.23-3.19-.44a19.13,19.13,0,0,0-4.25-.56c-.07,0-.16.18-.07.22a25.25,25.25,0,0,0,3.82,1c.56.12,1.13.24,1.68.4.77.22,1.49.6,2.26.82,1.43.41,2.81,1,4.24,1.36a9.76,9.76,0,0,1,3,1.22,8.65,8.65,0,0,1,1.43,1.47C139.59,148.07,139.69,147.65,139.66,147.53Z" style="fill:#b16668"></path><path d="M148.5,141.81a2.26,2.26,0,0,0-1,.39c-.35.19-.72.38-1.06.61a11.6,11.6,0,0,0-1.6,1.31,2.13,2.13,0,0,0-.71,1.47,1.71,1.71,0,0,0,.31,1.12c.2.25.48.06.4-.26a1.08,1.08,0,0,1,.14-.63,2.85,2.85,0,0,1,.49-.65c.34-.33.74-.59,1.11-.89a9.55,9.55,0,0,0,1-.9,3.87,3.87,0,0,0,1-1.17C148.66,142.1,148.68,141.81,148.5,141.81Z" style="fill:#b16668"></path><g id="freepik--top--inject-242"><g id="freepik--chest--inject-242"><g id="freepik--Head--inject-242"><path d="M123.7,123.53c-.55-5.19-5.31-10.86-7.33-15.47-1.94-4.45-3.05-7.88-2.55-11.92.3-2.39,2-5.54,3.84-6.12-1.49-9,5.46-12.76,9.07-13.39a39,39,0,0,0,5-1.06c2-.69,2.52-2.21,4.16-3.44,2.83-2.11,7.35-1.88,8.85,1.68,1.93-2.2,4.35-2,7.11-1.1a4.79,4.79,0,0,1,3.32,5.63c3.87-1.86,7.14,1,7.34,3.22.16,1.64-.28,3,.69,4.51,1.1,1.71,3.36,1.83,4.13.55.24,2.32-.77,4-3.26,3.74a5.25,5.25,0,0,1,.37,4.44,4.79,4.79,0,0,1-4.52,3,7.34,7.34,0,0,1-4.45,5.91c-3.89,1.57-8.12,1.89-12.25,2.48l-4.9.69c-.28,0-1.75,0-1.94.28Z" style="fill:#263238"></path><path d="M117,116.49a4.86,4.86,0,0,0,6.12-.09L122.08,127l-1,7.49s7,7,20.77,8.52c1.18-3,3.84-4.65,3.59-6.57l.67-6.61a18.83,18.83,0,0,0,4,.08,10.67,10.67,0,0,0,9.07-7.55A46.32,46.32,0,0,0,160.78,105a15.36,15.36,0,0,1,.05-4.23c.63-3.72.09-5.94-.68-9.14-4.2-3.84-14.78-5.62-24.68-.42.74,5.75-1.75,10.11-6,12,.1,1.55.05,5.43-2.47,5.2-1.81-.16-1.79-2.45-3.52-4.57s-6.06-2.94-7.93-.08C112.92,107.71,113.23,113.88,117,116.49Z" style="fill:#f28f8f"></path><path d="M146.06,129.83c-6.33-1.16-13.23-2.19-16.26-7a40.17,40.17,0,0,1-3.37-7.8s.3,5.69,2.14,9.65c1.42,3,7.31,5.78,17.25,7.28Z" style="fill:#b16668"></path><path d="M143.14,104.76a1.8,1.8,0,1,1-1.65-2A1.84,1.84,0,0,1,143.14,104.76Z" style="fill:#263238"></path><path d="M142.28,99.06l-3.92,2a2.31,2.31,0,0,1,1-3A2.16,2.16,0,0,1,142.28,99.06Z" style="fill:#263238"></path><path d="M158.87,100.85l-4.19-1.43A2.13,2.13,0,0,1,157.42,98,2.32,2.32,0,0,1,158.87,100.85Z" style="fill:#263238"></path><path d="M158,105.09a1.8,1.8,0,1,1-1.65-2A1.83,1.83,0,0,1,158,105.09Z" style="fill:#263238"></path><path d="M155.22,111.54l-6.41,2.38-1.16-12.36C150,100.88,152.65,106.69,155.22,111.54Z" style="fill:#b16668"></path><path d="M141.68,116.36l7.4,2.08a3.78,3.78,0,0,1-4.67,2.79A4,4,0,0,1,141.68,116.36Z" style="fill:#b16668"></path><path d="M142.51,117.64a4.19,4.19,0,0,0-.93,0,4,4,0,0,0,2.83,3.63,3.7,3.7,0,0,0,1.23.12A3.52,3.52,0,0,0,142.51,117.64Z" style="fill:#ffa8a7"></path></g></g><g id="freepik--Arm--inject-242"><path d="M102.14,238.06c-17-21.74-17.57-24.25-21.42-31a18.74,18.74,0,0,1-1.8-11.3c2-10.94,2.65-17.59,8.76-39.34,2.8-13.94,8.71-15,18.24-17.16,9.19,8.2,2.72,28.85,2.72,28.85L102,198.91s9.23,23.49,14.52,29.75c3.64,4.32,5.76,4.11,9.7,6.51,3.3,2,6,5.13,8.8,7.87.74.72,2.29,2.21-.05,3-4,1.43-9-5.17-10.86-3.58-.54.46,1.58,4.68,4.23,7.48s6,4.88,7.66,7c.74.92,1.17,2.9.43,3.88s-1.46.33-3.28-.17c-2.4,1.94-11.63,2.7-18-2.84S107.84,245.36,102.14,238.06Z" style="fill:#f28f8f"></path></g><path d="M116.56,228.66a41.54,41.54,0,0,1-4.56-6.94c-1.35-2.42-2.57-4.91-3.77-7.41s-2.36-5-3.44-7.55-2.17-5.1-3.21-7.67l0-.13,0-.15c1.06-5.14,2.18-10.26,3.31-15.38l1.69-7.69,1.76-7.66v0a59.88,59.88,0,0,0,1.85-6.93,31,31,0,0,0,.67-7.14,28.56,28.56,0,0,1-.3,7.21,49.49,49.49,0,0,1-1.61,7.07v0l-1.54,7.72-1.61,7.7c-1.07,5.13-2.14,10.26-3.28,15.38l0-.28q1.52,3.86,3.12,7.67c1.09,2.54,2.14,5.1,3.26,7.62s2.3,5,3.51,7.5A47.26,47.26,0,0,0,116.56,228.66Z" style="fill:#b16668"></path></g></g></g></g><g id="freepik--Bucket--inject-242"><g id="freepik--sand-bucket--inject-242"><ellipse id="freepik--shadow--inject-242" cx="420.24" cy="310.26" rx="25.24" ry="14.57" style="opacity:0.15"></ellipse><path d="M443.41,273.58l-46.55.83,2.68,33.06h0c0,3.07,2.07,6.13,6.14,8.45,8.15,4.63,21.32,4.54,29.41-.21,4.08-2.39,6.08-5.51,6-8.61Z" style="fill:#04D9C4"></path><path d="M403.56,264c-9.06,5.32-9,13.84.13,19s23.89,5.09,32.95-.23,9-13.83-.13-19S412.62,258.66,403.56,264Z" style="fill:#04D9C4"></path><path d="M403.56,264c-9.06,5.32-9,13.84.13,19s23.89,5.09,32.95-.23,9-13.83-.13-19S412.62,258.66,403.56,264Z" style="fill:#fff;opacity:0.2"></path><path d="M441.38,273.22a5.83,5.83,0,0,1-.29,1.83c-.68,2.19-2.54,4.25-5.48,6a34.48,34.48,0,0,1-30.92.22c-2.9-1.65-4.81-3.67-5.51-5.78a5.7,5.7,0,0,1-.36-2c0-2.84,2-5.61,5.77-7.79A31.22,31.22,0,0,1,420,262a31.55,31.55,0,0,1,15.51,3.55C439.28,267.65,441.36,270.38,441.38,273.22Z" style="fill:#04D9C4"></path><path d="M432.64,282.47a24.78,24.78,0,0,0,3-1.44c2.94-1.73,4.8-3.79,5.48-6a5.83,5.83,0,0,0,.29-1.83c0-2.84-2.1-5.57-5.86-7.71a26.19,26.19,0,0,0-5.84-2.34c6.34,2.92,4.1,12.63,3,19Z" style="opacity:0.1"></path><path d="M420.28,277.28a31.58,31.58,0,0,0-15.42,3.8c-.08.05-.14.1-.22.14l.05,0a34.48,34.48,0,0,0,30.92-.22l.22-.14,0,0A31.72,31.72,0,0,0,420.28,277.28Z" style="fill:#f0997a"></path><path d="M429.18,286.27c.91-.53,1.64-.11,1.65.93a3.63,3.63,0,0,1-1.62,2.86c-.9.53-1.64.11-1.65-.94A3.66,3.66,0,0,1,429.18,286.27Z" style="fill:#263238"></path><path d="M397.56,283.64c-1.92,5.18-3.35,12.21,1.2,15.45.25.18.48.33.73.48l0,2.17c-.6-.35-1.21-.74-1.81-1.16-6.77-4.83-2.87-15.73-.4-21.05Z" style="fill:#fafafa"></path><path d="M430,288.58c-.24.52-6.45,12.92-17,15.57a15.72,15.72,0,0,1-3.64.5,18.45,18.45,0,0,1-9.89-2.91l0-2.17c4.42,3,8.83,3.92,13.11,2.85,9.71-2.46,15.73-14.54,15.78-14.65a.9.9,0,0,1,1.21-.41A.88.88,0,0,1,430,288.58Z" style="fill:#fafafa"></path></g></g><g id="freepik--Castle--inject-242"><g id="freepik--castle--inject-242"><g id="freepik--sand-castle--inject-242"><path d="M275,262.85h0l-3-43.57-.88,3.24h-6.25v4a8.29,8.29,0,0,1-.92,1.29L261,226a20.11,20.11,0,0,1-6.36,2.27v4.13a27.8,27.8,0,0,1-8.35.3v-4.12a21.83,21.83,0,0,1-8.32-2.58l-3,1.74a7.22,7.22,0,0,1-1.45-2.42v-2.83h-6.16V222l-.44-2.67-3,43.57a7.69,7.69,0,0,0,0,.83c0,3.78,2.49,7.57,7.49,10.45,10,5.78,26.21,5.78,36.21,0C272.91,271,275.39,266.91,275,262.85Z" style="fill:#f0997a"></path><path d="M275,262.85h0l-3-43.57-.88,3.24h-6.25v4a8.29,8.29,0,0,1-.92,1.29L261,226a20.11,20.11,0,0,1-6.36,2.27v4.13a27.8,27.8,0,0,1-8.35.3v-4.12a21.83,21.83,0,0,1-8.32-2.58l-3,1.74a7.22,7.22,0,0,1-1.45-2.42v-2.83h-6.16V222l-.44-2.67-3,43.57a7.69,7.69,0,0,0,0,.83c0,3.78,2.49,7.57,7.49,10.45,10,5.78,26.21,5.78,36.21,0C272.91,271,275.39,266.91,275,262.85Z" style="fill:#fff;opacity:0.12"></path><path d="M252.64,210.61v3.67a28.13,28.13,0,0,0-8.35.31v-3.76A38.19,38.19,0,0,1,252.64,210.61Z" style="fill:#f0997a"></path><path d="M237.93,216.86a10.47,10.47,0,0,0-3.94,3.68l-.74-.14-5.22-1a12.4,12.4,0,0,1,3.13-3.52,19.55,19.55,0,0,1,2.32-1.58Z" style="fill:#f0997a"></path><path d="M271.59,221h0l-6.14.72a2.34,2.34,0,0,0-.09-.24,9.66,9.66,0,0,0-4.37-4.57l4.45-2.57a16.64,16.64,0,0,1,3.71,2.82,10.34,10.34,0,0,1,2.46,3.81A.1.1,0,0,0,271.59,221Z" style="fill:#f0997a"></path><path d="M270.86,227.63a14.48,14.48,0,0,1-5.45,5.1l-4-2.3-.43-.26h0a11.75,11.75,0,0,0,3-2.39,8.29,8.29,0,0,0,.92-1.29Z" style="fill:#f0997a"></path><path d="M256.58,235.87a38.57,38.57,0,0,1-11.56.42l1.23-3.56a27.8,27.8,0,0,0,8.35-.3Z" style="fill:#f0997a"></path><path d="M237.93,230.16l-.48.27-4,2.3c-3.28-1.89-5.34-4.22-6.17-6.66l6.16-.72a7.22,7.22,0,0,0,1.45,2.42,11.23,11.23,0,0,0,2.42,2C237.53,229.92,237.73,230,237.93,230.16Z" style="fill:#f0997a"></path><g style="opacity:0.2"><path d="M252.64,210.61v3.67a28.13,28.13,0,0,0-8.35.31v-3.76A38.19,38.19,0,0,1,252.64,210.61Z" style="fill:#fff"></path><path d="M237.93,216.86a10.47,10.47,0,0,0-3.94,3.68l-.74-.14-5.22-1a12.4,12.4,0,0,1,3.13-3.52,19.55,19.55,0,0,1,2.32-1.58Z" style="fill:#fff"></path><path d="M271.59,221h0l-6.14.72a2.34,2.34,0,0,0-.09-.24,9.66,9.66,0,0,0-4.37-4.57l4.45-2.57a16.64,16.64,0,0,1,3.71,2.82,10.34,10.34,0,0,1,2.46,3.81A.1.1,0,0,0,271.59,221Z" style="fill:#fff"></path><path d="M270.86,227.63a14.48,14.48,0,0,1-5.45,5.1l-4-2.3-.43-.26h0a11.75,11.75,0,0,0,3-2.39,8.29,8.29,0,0,0,.92-1.29Z" style="fill:#fff"></path><path d="M256.58,235.87a38.57,38.57,0,0,1-11.56.42l1.23-3.56a27.8,27.8,0,0,0,8.35-.3Z" style="fill:#fff"></path><path d="M237.93,230.16l-.48.27-4,2.3c-3.28-1.89-5.34-4.22-6.17-6.66l6.16-.72a7.22,7.22,0,0,0,1.45,2.42,11.23,11.23,0,0,0,2.42,2C237.53,229.92,237.73,230,237.93,230.16Z" style="fill:#fff"></path></g><path d="M237.93,230.16c6.36,3.67,16.67,3.67,23,0s6.37-9.63,0-13.3-16.67-3.67-23,0S231.57,226.49,237.93,230.16Z" style="fill:#ffbda7"></path><polygon points="245.02 236.29 245.02 232.17 233.48 228.61 233.48 232.73 245.02 236.29" style="fill:#f0997a"></polygon><polygon points="256.58 235.87 256.58 231.75 265.41 228.61 265.41 232.73 256.58 235.87" style="fill:#f0997a"></polygon><polygon points="245.02 236.29 245.02 232.17 233.48 228.61 233.48 232.73 245.02 236.29" style="fill:#fff;opacity:0.12"></polygon><polygon points="256.58 235.87 256.58 231.75 265.41 228.61 265.41 232.73 256.58 235.87" style="fill:#fff;opacity:0.12"></polygon><polygon points="256.58 231.75 256.58 235.87 254.59 232.43 254.59 228.3 256.58 231.75" style="fill:#f0997a"></polygon><polygon points="270.86 223.51 270.86 227.63 264.89 226.48 264.89 222.36 265.74 222.52 270.86 223.51" style="fill:#f0997a"></polygon><polygon points="265.41 210.17 265.41 214.29 260.96 216.86 260.96 212.74 265.41 210.17" style="fill:#f0997a"></polygon><polygon points="237.93 212.74 237.93 216.86 233.48 214.29 233.48 210.17 237.93 212.74" style="fill:#f0997a"></polygon><polygon points="233.47 221.23 233.47 225.35 227.31 226.07 227.31 221.94 233.47 221.23" style="fill:#f0997a"></polygon><polygon points="246.25 228.61 246.25 232.74 245.02 236.29 245.02 232.17 246.25 228.61" style="fill:#f0997a"></polygon><g style="opacity:0.08"><polygon points="256.58 231.75 256.58 235.87 254.59 232.43 254.59 228.3 256.58 231.75"></polygon><polygon points="270.86 223.51 270.86 227.63 264.89 226.48 264.89 222.36 265.74 222.52 270.86 223.51"></polygon><polygon points="265.41 210.17 265.41 214.29 260.96 216.86 260.96 212.74 265.41 210.17"></polygon><polygon points="237.93 212.74 237.93 216.86 233.48 214.29 233.48 210.17 237.93 212.74"></polygon><polygon points="233.47 221.23 233.47 225.35 227.31 226.07 227.31 221.94 233.47 221.23"></polygon><polygon points="246.25 228.61 246.25 232.74 245.02 236.29 245.02 232.17 246.25 228.61"></polygon></g><path d="M261,216.86v-4.12a21.84,21.84,0,0,0-8.32-2.59v4.13a28.13,28.13,0,0,0-8.35.31v-4.13a20.53,20.53,0,0,0-6.36,2.28v4.12a10.47,10.47,0,0,0-3.94,3.68v-4.12a5.78,5.78,0,0,0-.52,4.81v4.12a7.22,7.22,0,0,0,1.45,2.42l3-1.74a21.83,21.83,0,0,0,8.32,2.58v4.12a27.8,27.8,0,0,0,8.35-.3V228.3A20.11,20.11,0,0,0,261,226l3,1.74a8.29,8.29,0,0,0,.92-1.29v-4.12a5.59,5.59,0,0,0,.44-.93A9.66,9.66,0,0,0,261,216.86Z" style="fill:#f0997a"></path><path d="M261,216.86v-4.12a21.84,21.84,0,0,0-8.32-2.59v4.13a28.13,28.13,0,0,0-8.35.31v-4.13a20.53,20.53,0,0,0-6.36,2.28v4.12a10.47,10.47,0,0,0-3.94,3.68v-4.12a5.78,5.78,0,0,0-.52,4.81v4.12a7.22,7.22,0,0,0,1.45,2.42l3-1.74a21.83,21.83,0,0,0,8.32,2.58v4.12a27.8,27.8,0,0,0,8.35-.3V228.3A20.11,20.11,0,0,0,261,226l3,1.74a8.29,8.29,0,0,0,.92-1.29v-4.12a5.59,5.59,0,0,0,.44-.93A9.66,9.66,0,0,0,261,216.86Z" style="opacity:0.03"></path><path d="M265.41,210.17,261,212.74a21.84,21.84,0,0,0-8.32-2.59l1.23-3.54A29.92,29.92,0,0,1,265.41,210.17Z" style="fill:#f0997a"></path><path d="M244.29,210.46a20.53,20.53,0,0,0-6.36,2.28l-4.45-2.57a28.65,28.65,0,0,1,8.83-3.14Z" style="fill:#f0997a"></path><path d="M272,219.29a7.85,7.85,0,0,1-.66,3.23,9.19,9.19,0,0,1-.5,1l-5.12-1-.85-.16a5.59,5.59,0,0,0,.44-.93,5.44,5.44,0,0,0,.09-3.89l3.7-.43,2.47-.28A7.82,7.82,0,0,1,272,219.29Z" style="fill:#f0997a"></path><path d="M265.41,228.6a24.09,24.09,0,0,1-4,1.83,33.86,33.86,0,0,1-4.85,1.32l-2-3.45A20.11,20.11,0,0,0,261,226l3,1.74Z" style="fill:#f0997a"></path><path d="M233.25,220.4a6.81,6.81,0,0,0,.22.83l-6.16.71a7.82,7.82,0,0,1-.44-2.64,8.16,8.16,0,0,1,1.16-4l3.13.6,2.83.55A5.74,5.74,0,0,0,233.25,220.4Z" style="fill:#f0997a"></path><path d="M246.25,228.61,245,232.17a34.25,34.25,0,0,1-7.57-1.74,23.62,23.62,0,0,1-4-1.83l1.44-.83,3-1.74A21.83,21.83,0,0,0,246.25,228.61Z" style="fill:#f0997a"></path><g style="opacity:0.2"><path d="M265.41,210.17,261,212.74a21.84,21.84,0,0,0-8.32-2.59l1.23-3.54A29.92,29.92,0,0,1,265.41,210.17Z" style="fill:#fff"></path><path d="M244.29,210.46a20.53,20.53,0,0,0-6.36,2.28l-4.45-2.57a28.65,28.65,0,0,1,8.83-3.14Z" style="fill:#fff"></path><path d="M272,219.29a7.85,7.85,0,0,1-.66,3.23,9.19,9.19,0,0,1-.5,1l-5.12-1-.85-.16a5.59,5.59,0,0,0,.44-.93,5.44,5.44,0,0,0,.09-3.89l3.7-.43,2.47-.28A7.82,7.82,0,0,1,272,219.29Z" style="fill:#fff"></path><path d="M265.41,228.6a24.09,24.09,0,0,1-4,1.83,33.86,33.86,0,0,1-4.85,1.32l-2-3.45A20.11,20.11,0,0,0,261,226l3,1.74Z" style="fill:#fff"></path><path d="M233.25,220.4a6.81,6.81,0,0,0,.22.83l-6.16.71a7.82,7.82,0,0,1-.44-2.64,8.16,8.16,0,0,1,1.16-4l3.13.6,2.83.55A5.74,5.74,0,0,0,233.25,220.4Z" style="fill:#fff"></path><path d="M246.25,228.61,245,232.17a34.25,34.25,0,0,1-7.57-1.74,23.62,23.62,0,0,1-4-1.83l1.44-.83,3-1.74A21.83,21.83,0,0,0,246.25,228.61Z" style="fill:#fff"></path></g><path d="M238.4,234.58l-13,5.63h0l-1.55,22.64a7.69,7.69,0,0,0,0,.83c0,3.78,2.49,7.57,7.49,10.45,10,5.78,26.21,5.78,36.21,0-7.6,2.36-10.73,2.32-16.75-1.59C240.77,266,239.85,242.5,238.4,234.58Z" style="fill:#f0997a"></path><path d="M260.25,234.58l13,5.63h0l1.55,22.64c0,.28,0,.55,0,.83,0,3.78-2.5,7.57-7.5,10.45-10,5.78-26.21,5.78-36.21,0,7.61,2.36,10.73,2.32,16.76-1.59C257.88,266,258.8,242.5,260.25,234.58Z" style="fill:#f0997a"></path><path d="M264.89,226.48v-.24c-1.78-4-8.1-6.94-15.65-6.94-7.37,0-13.57,2.81-15.52,6.65a7.73,7.73,0,0,0,1.2,1.82l3-1.74a21.83,21.83,0,0,0,8.32,2.58v4.12a27.8,27.8,0,0,0,8.35-.3V228.3A20.11,20.11,0,0,0,261,226l3,1.74A8.29,8.29,0,0,0,264.89,226.48Z" style="fill:#fff;opacity:0.07"></path><polygon points="163.49 322.95 241.66 277.82 238.4 234.58 231.88 230.82 222.12 236.46 222.12 240.22 215.6 243.98 212.34 242.1 202.57 247.74 202.57 251.5 196.06 255.26 192.81 253.38 183.03 259.02 183.03 262.78 176.52 266.54 173.24 264.65 163.49 270.3 163.49 322.95" style="fill:#f0997a"></polygon><path d="M174.46,271.49,170,274.06l-6.52-3.76V323L187.3,309.2C178.14,314.49,176.72,294,174.46,271.49Z" style="fill:#f0997a"></path><g style="opacity:0.1"><polygon points="209.09 255.26 199.32 260.9 199.32 257.14 196.06 255.26 202.57 251.5 209.09 255.26" style="fill:#fff"></polygon><polygon points="228.63 243.98 218.86 249.62 218.86 245.86 215.6 243.98 222.11 240.22 228.63 243.98" style="fill:#fff"></polygon><polygon points="189.55 266.54 179.78 272.18 179.78 268.42 176.52 266.54 183.03 262.78 189.55 266.54" style="fill:#fff"></polygon></g><g style="opacity:0.2"><polygon points="238.4 234.58 228.63 240.22 222.12 236.46 231.88 230.82 238.4 234.58" style="fill:#fff"></polygon><polygon points="218.86 245.86 209.09 251.5 202.57 247.74 212.34 242.1 218.86 245.86" style="fill:#fff"></polygon><polygon points="199.32 257.14 189.55 262.78 183.03 259.02 192.8 253.38 199.32 257.14" style="fill:#fff"></polygon><polygon points="179.78 268.42 170.01 274.06 163.49 270.3 173.26 264.66 179.78 268.42" style="fill:#fff"></polygon></g><polygon points="222.12 240.22 228.63 243.98 228.63 240.22 222.12 236.46 222.12 240.22" style="fill:#f0997a"></polygon><polygon points="202.58 251.5 209.1 255.26 209.1 251.5 202.58 247.74 202.58 251.5" style="fill:#f0997a"></polygon><polygon points="183.05 262.78 189.56 266.54 189.56 262.78 183.05 259.02 183.05 262.78" style="fill:#f0997a"></polygon><polygon points="163.52 274.06 170.03 277.82 170.03 274.06 163.52 270.3 163.52 274.06" style="fill:#f0997a"></polygon><g style="opacity:0.05"><polygon points="222.12 240.22 228.63 243.98 228.63 240.22 222.12 236.46 222.12 240.22"></polygon><polygon points="202.58 251.5 209.1 255.26 209.1 251.5 202.58 247.74 202.58 251.5"></polygon><polygon points="183.05 262.78 189.56 266.54 189.56 262.78 183.05 259.02 183.05 262.78"></polygon><polygon points="163.52 274.06 170.03 277.82 170.03 274.06 163.52 270.3 163.52 274.06"></polygon></g><polygon points="335.22 322.95 257.05 277.82 260.31 234.58 266.82 230.82 276.6 236.46 276.6 240.22 283.11 243.98 286.37 242.1 296.13 247.74 296.13 251.5 302.65 255.26 305.9 253.38 315.68 259.02 315.68 262.78 322.19 266.54 325.47 264.65 335.21 270.3 335.22 322.95" style="fill:#f0997a"></polygon><path d="M324.25,271.49l4.45,2.57,6.52-3.76V323L311.4,309.2C320.57,314.49,322,294,324.25,271.49Z" style="fill:#f0997a"></path><g style="opacity:0.1"><polygon points="289.62 255.26 299.39 260.9 299.39 257.14 302.65 255.26 296.14 251.5 289.62 255.26" style="fill:#fff"></polygon><polygon points="270.08 243.98 279.85 249.62 279.85 245.86 283.11 243.98 276.6 240.22 270.08 243.98" style="fill:#fff"></polygon><polygon points="309.16 266.54 318.93 272.18 318.93 268.42 322.19 266.54 315.68 262.78 309.16 266.54" style="fill:#fff"></polygon></g><g style="opacity:0.2"><polygon points="260.31 234.58 270.08 240.22 276.6 236.46 266.82 230.82 260.31 234.58" style="fill:#fff"></polygon><polygon points="279.85 245.86 289.62 251.5 296.14 247.74 286.37 242.1 279.85 245.86" style="fill:#fff"></polygon><polygon points="299.39 257.14 309.16 262.78 315.68 259.02 305.91 253.38 299.39 257.14" style="fill:#fff"></polygon><polygon points="318.93 268.42 328.7 274.06 335.22 270.3 325.45 264.66 318.93 268.42" style="fill:#fff"></polygon></g><polygon points="276.6 240.22 270.08 243.98 270.08 240.22 276.6 236.46 276.6 240.22" style="fill:#f0997a"></polygon><polygon points="296.13 251.5 289.61 255.26 289.61 251.5 296.13 247.74 296.13 251.5" style="fill:#f0997a"></polygon><polygon points="315.66 262.78 309.15 266.54 309.15 262.78 315.66 259.02 315.66 262.78" style="fill:#f0997a"></polygon><polygon points="335.19 274.06 328.68 277.82 328.68 274.06 335.19 270.3 335.19 274.06" style="fill:#f0997a"></polygon><g style="opacity:0.05"><polygon points="276.6 240.22 270.08 243.98 270.08 240.22 276.6 236.46 276.6 240.22"></polygon><polygon points="296.13 251.5 289.61 255.26 289.61 251.5 296.13 247.74 296.13 251.5"></polygon><polygon points="315.66 262.78 309.15 266.54 309.15 262.78 315.66 259.02 315.66 262.78"></polygon><polygon points="335.19 274.06 328.68 277.82 328.68 274.06 335.19 270.3 335.19 274.06"></polygon></g><path d="M301.49,305.07,290,223.43l-1.61,5.81H277.16v7.14a13.08,13.08,0,0,1-1.67,2.31l-5.4-3.12a36.37,36.37,0,0,1-11.46,4.08v7.43a49.77,49.77,0,0,1-15,.55V240.2a39.17,39.17,0,0,1-15-4.63l-5.4,3.12a13,13,0,0,1-2.61-4.34v-5.11h-11.1v-1l-.79-4.79-11.54,82a.9.9,0,0,0,0,.16,1.38,1.38,0,0,0,0,.2l.07-.33c-1.3,8.6,3.74,17.46,15.14,24,20.45,11.81,53.61,11.81,74.07,0,11.55-6.67,16.58-15.69,15.08-24.39Z" style="fill:#f0997a"></path><path d="M301.49,305.07,290,223.43l-1.61,5.81H277.16v7.14a13.08,13.08,0,0,1-1.67,2.31l-5.4-3.12a36.37,36.37,0,0,1-11.46,4.08v7.43a49.77,49.77,0,0,1-15,.55V240.2a39.17,39.17,0,0,1-15-4.63l-5.4,3.12a13,13,0,0,1-2.61-4.34v-5.11h-11.1v-1l-.79-4.79-11.54,82a.9.9,0,0,0,0,.16,1.38,1.38,0,0,0,0,.2l.07-.33c-1.3,8.6,3.74,17.46,15.14,24,20.45,11.81,53.61,11.81,74.07,0,11.55-6.67,16.58-15.69,15.08-24.39Z" style="fill:#fff;opacity:0.12"></path><path d="M255.11,207.81v6.61a50.77,50.77,0,0,0-15,.55v-6.75A69.88,69.88,0,0,1,255.11,207.81Z" style="fill:#f0997a"></path><path d="M228.64,219.07a18.76,18.76,0,0,0-7.09,6.62l-1.32-.26-9.41-1.81a22.4,22.4,0,0,1,5.63-6.34,33.86,33.86,0,0,1,4.18-2.83Z" style="fill:#f0997a"></path><path d="M289.2,226.43h0l-11.05,1.29a4.29,4.29,0,0,0-.16-.43c-1.18-3-3.79-5.87-7.86-8.22l8-4.62a29.63,29.63,0,0,1,6.68,5.07,18.81,18.81,0,0,1,4.42,6.85S289.2,226.42,289.2,226.43Z" style="fill:#f0997a"></path><path d="M287.9,238.45c-1.92,3.35-5.19,6.5-9.81,9.17l-7.17-4.14-.77-.46-.06,0a21.27,21.27,0,0,0,5.41-4.3,14.55,14.55,0,0,0,1.66-2.31Z" style="fill:#f0997a"></path><path d="M262.2,253.27a69.33,69.33,0,0,1-20.8.76l2.21-6.4a50,50,0,0,0,15-.55Z" style="fill:#f0997a"></path><path d="M228.64,243l-.86.5-7.15,4.13c-5.9-3.4-9.61-7.6-11.11-12l11.1-1.28a12.86,12.86,0,0,0,2.61,4.34,20,20,0,0,0,4.34,3.65C227.92,242.57,228.27,242.79,228.64,243Z" style="fill:#f0997a"></path><g style="opacity:0.2"><path d="M255.11,207.81v6.61a50.77,50.77,0,0,0-15,.55v-6.75A69.88,69.88,0,0,1,255.11,207.81Z" style="fill:#fff"></path><path d="M228.64,219.07a18.76,18.76,0,0,0-7.09,6.62l-1.32-.26-9.41-1.81a22.4,22.4,0,0,1,5.63-6.34,33.86,33.86,0,0,1,4.18-2.83Z" style="fill:#fff"></path><path d="M289.2,226.43h0l-11.05,1.29a4.29,4.29,0,0,0-.16-.43c-1.18-3-3.79-5.87-7.86-8.22l8-4.62a29.63,29.63,0,0,1,6.68,5.07,18.81,18.81,0,0,1,4.42,6.85S289.2,226.42,289.2,226.43Z" style="fill:#fff"></path><path d="M287.9,238.45c-1.92,3.35-5.19,6.5-9.81,9.17l-7.17-4.14-.77-.46-.06,0a21.27,21.27,0,0,0,5.41-4.3,14.55,14.55,0,0,0,1.66-2.31Z" style="fill:#fff"></path><path d="M262.2,253.27a69.33,69.33,0,0,1-20.8.76l2.21-6.4a50,50,0,0,0,15-.55Z" style="fill:#fff"></path><path d="M228.64,243l-.86.5-7.15,4.13c-5.9-3.4-9.61-7.6-11.11-12l11.1-1.28a12.86,12.86,0,0,0,2.61,4.34,20,20,0,0,0,4.34,3.65C227.92,242.57,228.27,242.79,228.64,243Z" style="fill:#fff"></path></g><path d="M228.63,243c11.45,6.61,30,6.61,41.46,0s11.45-17.33,0-23.94-30-6.61-41.46,0S217.19,236.39,228.63,243Z" style="fill:#ffbda7"></path><polygon points="241.4 254.03 241.4 246.62 220.63 240.2 220.63 247.62 241.4 254.03" style="fill:#f0997a"></polygon><polygon points="262.2 253.27 262.2 245.86 278.09 240.2 278.09 247.62 262.2 253.27" style="fill:#f0997a"></polygon><polygon points="241.4 254.03 241.4 246.62 220.63 240.2 220.63 247.62 241.4 254.03" style="fill:#fff;opacity:0.12"></polygon><polygon points="262.2 253.27 262.2 245.86 278.09 240.2 278.09 247.62 262.2 253.27" style="fill:#fff;opacity:0.12"></polygon><polygon points="262.2 245.85 262.2 253.27 258.63 247.08 258.63 239.66 262.2 245.85" style="fill:#f0997a"></polygon><polygon points="287.9 231.02 287.9 238.45 277.16 236.38 277.16 228.95 278.68 229.25 287.9 231.02" style="fill:#f0997a"></polygon><polygon points="278.09 207.03 278.09 214.45 270.09 219.07 270.09 211.65 278.09 207.03" style="fill:#f0997a"></polygon><polygon points="228.64 211.65 228.64 219.07 220.63 214.45 220.63 207.03 228.64 211.65" style="fill:#f0997a"></polygon><polygon points="220.62 226.93 220.62 234.35 209.52 235.63 209.52 228.21 220.62 226.93" style="fill:#f0997a"></polygon><polygon points="243.61 240.21 243.61 247.63 241.4 254.03 241.4 246.61 243.61 240.21" style="fill:#f0997a"></polygon><g style="opacity:0.08"><polygon points="262.2 245.85 262.2 253.27 258.63 247.08 258.63 239.66 262.2 245.85"></polygon><polygon points="287.9 231.02 287.9 238.45 277.16 236.38 277.16 228.95 278.68 229.25 287.9 231.02"></polygon><polygon points="278.09 207.03 278.09 214.45 270.09 219.07 270.09 211.65 278.09 207.03"></polygon><polygon points="228.64 211.65 228.64 219.07 220.63 214.45 220.63 207.03 228.64 211.65"></polygon><polygon points="220.62 226.93 220.62 234.35 209.52 235.63 209.52 228.21 220.62 226.93"></polygon><polygon points="243.61 240.21 243.61 247.63 241.4 254.03 241.4 246.61 243.61 240.21"></polygon></g><path d="M270.09,219.07v-7.42a39.18,39.18,0,0,0-15-4.65v7.42a50.77,50.77,0,0,0-15,.55v-7.42a36.59,36.59,0,0,0-11.44,4.1v7.42a18.76,18.76,0,0,0-7.09,6.62v-7.42c-1.43,2.86-2.07,5.74-.93,8.66v7.42a12.86,12.86,0,0,0,2.61,4.34l5.41-3.12a39,39,0,0,0,15,4.64v7.42a50,50,0,0,0,15-.55v-7.42a36.63,36.63,0,0,0,11.46-4.09l5.41,3.12a14.55,14.55,0,0,0,1.66-2.31V229a10.89,10.89,0,0,0,.79-1.66C276.77,224.27,274.16,221.42,270.09,219.07Z" style="fill:#f0997a"></path><path d="M270.09,219.07v-7.42a39.18,39.18,0,0,0-15-4.65v7.42a50.77,50.77,0,0,0-15,.55v-7.42a36.59,36.59,0,0,0-11.44,4.1v7.42a18.76,18.76,0,0,0-7.09,6.62v-7.42c-1.43,2.86-2.07,5.74-.93,8.66v7.42a12.86,12.86,0,0,0,2.61,4.34l5.41-3.12a39,39,0,0,0,15,4.64v7.42a50,50,0,0,0,15-.55v-7.42a36.63,36.63,0,0,0,11.46-4.09l5.41,3.12a14.55,14.55,0,0,0,1.66-2.31V229a10.89,10.89,0,0,0,.79-1.66C276.77,224.27,274.16,221.42,270.09,219.07Z" style="opacity:0.03"></path><path d="M278.09,207l-8,4.62a39.18,39.18,0,0,0-15-4.65l2.22-6.39A54.13,54.13,0,0,1,278.09,207Z" style="fill:#f0997a"></path><path d="M240.08,207.55a36.59,36.59,0,0,0-11.44,4.1l-8-4.62a51.38,51.38,0,0,1,15.9-5.66Z" style="fill:#f0997a"></path><path d="M290,223.44A15.17,15.17,0,0,1,287.9,231l-9.22-1.77-1.52-.3a10.89,10.89,0,0,0,.79-1.66,9.82,9.82,0,0,0,.16-7l6.66-.77,4.43-.51A13.71,13.71,0,0,1,290,223.44Z" style="fill:#f0997a"></path><path d="M278.09,240.2a43.44,43.44,0,0,1-7.17,3.28,57.89,57.89,0,0,1-8.72,2.37l-3.57-6.19a36.63,36.63,0,0,0,11.46-4.09l5.41,3.12Z" style="fill:#f0997a"></path><path d="M220.23,225.43a8.51,8.51,0,0,0,.39,1.5l-11.1,1.28a14,14,0,0,1-.78-4.75,14.81,14.81,0,0,1,2.08-7.26l5.63,1.08,5.1,1A10.22,10.22,0,0,0,220.23,225.43Z" style="fill:#f0997a"></path><path d="M243.61,240.21l-2.21,6.4a60.93,60.93,0,0,1-13.62-3.12,44.09,44.09,0,0,1-7.15-3.29l2.6-1.51,5.41-3.12A39,39,0,0,0,243.61,240.21Z" style="fill:#f0997a"></path><g style="opacity:0.2"><path d="M278.09,207l-8,4.62a39.18,39.18,0,0,0-15-4.65l2.22-6.39A54.13,54.13,0,0,1,278.09,207Z" style="fill:#fff"></path><path d="M240.08,207.55a36.59,36.59,0,0,0-11.44,4.1l-8-4.62a51.38,51.38,0,0,1,15.9-5.66Z" style="fill:#fff"></path><path d="M290,223.44A15.17,15.17,0,0,1,287.9,231l-9.22-1.77-1.52-.3a10.89,10.89,0,0,0,.79-1.66,9.82,9.82,0,0,0,.16-7l6.66-.77,4.43-.51A13.71,13.71,0,0,1,290,223.44Z" style="fill:#fff"></path><path d="M278.09,240.2a43.44,43.44,0,0,1-7.17,3.28,57.89,57.89,0,0,1-8.72,2.37l-3.57-6.19a36.63,36.63,0,0,0,11.46-4.09l5.41,3.12Z" style="fill:#fff"></path><path d="M220.23,225.43a8.51,8.51,0,0,0,.39,1.5l-11.1,1.28a14,14,0,0,1-.78-4.75,14.81,14.81,0,0,1,2.08-7.26l5.63,1.08,5.1,1A10.22,10.22,0,0,0,220.23,225.43Z" style="fill:#fff"></path><path d="M243.61,240.21l-2.21,6.4a60.93,60.93,0,0,1-13.62-3.12,44.09,44.09,0,0,1-7.15-3.29l2.6-1.51,5.41-3.12A39,39,0,0,0,243.61,240.21Z" style="fill:#fff"></path></g><path d="M277.16,236.38V236c-3.21-7.18-14.58-12.49-28.17-12.49-13.25,0-24.42,5.06-27.93,12a13.51,13.51,0,0,0,2.17,3.26l5.41-3.12a39,39,0,0,0,15,4.64v7.42a50,50,0,0,0,15-.55v-7.42a36.63,36.63,0,0,0,11.46-4.09l5.41,3.12A14.55,14.55,0,0,0,277.16,236.38Z" style="fill:#fff;opacity:0.07"></path><path d="M292.18,325.5a42.52,42.52,0,0,1-5.77,3.95,69,69,0,0,1-24.79,8L260.85,319c-.5-12.2,5.92-25.67,14.36-30.12s15.68,1.83,16.19,14Z" style="fill:#f0997a"></path><path d="M292.18,325.5a42.52,42.52,0,0,1-5.77,3.95,69,69,0,0,1-24.79,8L260.85,319c-.5-12.2,5.92-25.67,14.36-30.12s15.68,1.83,16.19,14Z" style="opacity:0.1"></path><path d="M285.56,299.23c-.21-5-1.56-8.94-3.63-11.62a10.61,10.61,0,0,0-6.72,1.28c-8.44,4.45-14.86,17.93-14.36,30.11l.61,14.58c8.54-.95,19.8-4.37,25.08-8.91Z" style="fill:#f0997a"></path><path d="M374.09,315.67h0l-3-43.57-.88,3.23H364v4a8.22,8.22,0,0,1-.92,1.28l-3-1.73a20.33,20.33,0,0,1-6.37,2.27v4.12a27.41,27.41,0,0,1-8.34.31v-4.12a21.78,21.78,0,0,1-8.32-2.58l-3,1.73a7.28,7.28,0,0,1-1.45-2.41v-2.84H326.4v-.57L326,272.1l-3,43.57a7.56,7.56,0,0,0,0,.83c0,3.78,2.49,7.56,7.49,10.45,10,5.77,26.21,5.77,36.21,0C372,323.85,374.48,319.73,374.09,315.67Z" style="fill:#f0997a"></path><path d="M374.09,315.67h0l-3-43.57-.88,3.23H364v4a8.22,8.22,0,0,1-.92,1.28l-3-1.73a20.33,20.33,0,0,1-6.37,2.27v4.12a27.41,27.41,0,0,1-8.34.31v-4.12a21.78,21.78,0,0,1-8.32-2.58l-3,1.73a7.28,7.28,0,0,1-1.45-2.41v-2.84H326.4v-.57L326,272.1l-3,43.57a7.56,7.56,0,0,0,0,.83c0,3.78,2.49,7.56,7.49,10.45,10,5.77,26.21,5.77,36.21,0C372,323.85,374.48,319.73,374.09,315.67Z" style="fill:#fff;opacity:0.12"></path><path d="M351.73,263.42v3.67a28.47,28.47,0,0,0-8.35.31v-3.75A38.82,38.82,0,0,1,351.73,263.42Z" style="fill:#f0997a"></path><path d="M337,269.68a10.4,10.4,0,0,0-3.94,3.68l-.74-.15-5.22-1a12.67,12.67,0,0,1,3.12-3.53,19.29,19.29,0,0,1,2.33-1.57Z" style="fill:#f0997a"></path><path d="M370.67,273.77h0l-6.14.71-.09-.23a9.57,9.57,0,0,0-4.37-4.57l4.45-2.57a16.64,16.64,0,0,1,3.71,2.82,10.46,10.46,0,0,1,2.46,3.81Z" style="fill:#f0997a"></path><path d="M370,280.45a14.39,14.39,0,0,1-5.45,5.09l-4-2.3-.42-.25,0,0a11.75,11.75,0,0,0,3-2.39,8.22,8.22,0,0,0,.92-1.28Z" style="fill:#f0997a"></path><path d="M355.67,288.69a38.92,38.92,0,0,1-11.56.42l1.23-3.56a27.41,27.41,0,0,0,8.34-.31Z" style="fill:#f0997a"></path><path d="M337,283l-.48.28-4,2.29c-3.28-1.89-5.34-4.22-6.17-6.66l6.16-.71a7.28,7.28,0,0,0,1.45,2.41,10.79,10.79,0,0,0,2.42,2C336.62,282.74,336.82,282.86,337,283Z" style="fill:#f0997a"></path><g style="opacity:0.2"><path d="M351.73,263.42v3.67a28.47,28.47,0,0,0-8.35.31v-3.75A38.82,38.82,0,0,1,351.73,263.42Z" style="fill:#fff"></path><path d="M337,269.68a10.4,10.4,0,0,0-3.94,3.68l-.74-.15-5.22-1a12.67,12.67,0,0,1,3.12-3.53,19.29,19.29,0,0,1,2.33-1.57Z" style="fill:#fff"></path><path d="M370.67,273.77h0l-6.14.71-.09-.23a9.57,9.57,0,0,0-4.37-4.57l4.45-2.57a16.64,16.64,0,0,1,3.71,2.82,10.46,10.46,0,0,1,2.46,3.81Z" style="fill:#fff"></path><path d="M370,280.45a14.39,14.39,0,0,1-5.45,5.09l-4-2.3-.42-.25,0,0a11.75,11.75,0,0,0,3-2.39,8.22,8.22,0,0,0,.92-1.28Z" style="fill:#fff"></path><path d="M355.67,288.69a38.92,38.92,0,0,1-11.56.42l1.23-3.56a27.41,27.41,0,0,0,8.34-.31Z" style="fill:#fff"></path><path d="M337,283l-.48.28-4,2.29c-3.28-1.89-5.34-4.22-6.17-6.66l6.16-.71a7.28,7.28,0,0,0,1.45,2.41,10.79,10.79,0,0,0,2.42,2C336.62,282.74,336.82,282.86,337,283Z" style="fill:#fff"></path></g><path d="M337,283c6.36,3.67,16.67,3.67,23,0s6.37-9.63,0-13.3-16.67-3.68-23,0S330.65,279.3,337,283Z" style="fill:#ffbda7"></path><polygon points="344.11 289.11 344.11 284.99 332.57 281.42 332.57 285.54 344.11 289.11" style="fill:#f0997a"></polygon><polygon points="355.67 288.69 355.67 284.57 364.5 281.42 364.5 285.54 355.67 288.69" style="fill:#f0997a"></polygon><polygon points="344.11 289.11 344.11 284.99 332.57 281.42 332.57 285.54 344.11 289.11" style="fill:#fff;opacity:0.12"></polygon><polygon points="355.67 288.69 355.67 284.57 364.5 281.42 364.5 285.54 355.67 288.69" style="fill:#fff;opacity:0.12"></polygon><polygon points="355.67 284.56 355.67 288.69 353.68 285.24 353.68 281.12 355.67 284.56" style="fill:#f0997a"></polygon><polygon points="369.95 276.32 369.95 280.45 363.98 279.3 363.98 275.17 364.82 275.33 369.95 276.32" style="fill:#f0997a"></polygon><polygon points="364.5 262.99 364.5 267.11 360.05 269.68 360.05 265.56 364.5 262.99" style="fill:#f0997a"></polygon><polygon points="337.02 265.56 337.02 269.68 332.57 267.11 332.57 262.99 337.02 265.56" style="fill:#f0997a"></polygon><polygon points="332.56 274.05 332.56 278.17 326.4 278.88 326.4 274.76 332.56 274.05" style="fill:#f0997a"></polygon><polygon points="345.34 281.43 345.34 285.55 344.11 289.11 344.11 284.98 345.34 281.43" style="fill:#f0997a"></polygon><g style="opacity:0.08"><polygon points="355.67 284.56 355.67 288.69 353.68 285.24 353.68 281.12 355.67 284.56"></polygon><polygon points="369.95 276.32 369.95 280.45 363.98 279.3 363.98 275.17 364.82 275.33 369.95 276.32"></polygon><polygon points="364.5 262.99 364.5 267.11 360.05 269.68 360.05 265.56 364.5 262.99"></polygon><polygon points="337.02 265.56 337.02 269.68 332.57 267.11 332.57 262.99 337.02 265.56"></polygon><polygon points="332.56 274.05 332.56 278.17 326.4 278.88 326.4 274.76 332.56 274.05"></polygon><polygon points="345.34 281.43 345.34 285.55 344.11 289.11 344.11 284.98 345.34 281.43"></polygon></g><path d="M360.05,269.68v-4.13a22,22,0,0,0-8.32-2.58v4.12a28.47,28.47,0,0,0-8.35.31v-4.12a20.52,20.52,0,0,0-6.36,2.27v4.13a10.4,10.4,0,0,0-3.94,3.68v-4.13a5.8,5.8,0,0,0-.52,4.82v4.12a7.28,7.28,0,0,0,1.45,2.41l3-1.73a21.78,21.78,0,0,0,8.32,2.58v4.12a27.41,27.41,0,0,0,8.34-.31v-4.12a20.33,20.33,0,0,0,6.37-2.27l3,1.73a8.22,8.22,0,0,0,.92-1.28v-4.13a5.5,5.5,0,0,0,.44-.92A9.57,9.57,0,0,0,360.05,269.68Z" style="fill:#f0997a"></path><path d="M360.05,269.68v-4.13a22,22,0,0,0-8.32-2.58v4.12a28.47,28.47,0,0,0-8.35.31v-4.12a20.52,20.52,0,0,0-6.36,2.27v4.13a10.4,10.4,0,0,0-3.94,3.68v-4.13a5.8,5.8,0,0,0-.52,4.82v4.12a7.28,7.28,0,0,0,1.45,2.41l3-1.73a21.78,21.78,0,0,0,8.32,2.58v4.12a27.41,27.41,0,0,0,8.34-.31v-4.12a20.33,20.33,0,0,0,6.37-2.27l3,1.73a8.22,8.22,0,0,0,.92-1.28v-4.13a5.5,5.5,0,0,0,.44-.92A9.57,9.57,0,0,0,360.05,269.68Z" style="opacity:0.03"></path><path d="M364.5,263l-4.45,2.56a22,22,0,0,0-8.32-2.58l1.23-3.55A30.1,30.1,0,0,1,364.5,263Z" style="fill:#f0997a"></path><path d="M343.38,263.28a20.52,20.52,0,0,0-6.36,2.27L332.57,263a28.66,28.66,0,0,1,8.83-3.15Z" style="fill:#f0997a"></path><path d="M371.11,272.11a7.77,7.77,0,0,1-.66,3.22,7.65,7.65,0,0,1-.5,1l-5.13-1-.84-.16a5.89,5.89,0,0,0,.53-4.81l3.7-.43,2.46-.28A7.51,7.51,0,0,1,371.11,272.11Z" style="fill:#f0997a"></path><path d="M364.5,281.42a23.8,23.8,0,0,1-4,1.82,31,31,0,0,1-4.84,1.32l-2-3.44a20.33,20.33,0,0,0,6.37-2.27l3,1.73Z" style="fill:#f0997a"></path><path d="M332.34,273.21a5.2,5.2,0,0,0,.22.84l-6.16.71a7.86,7.86,0,0,1-.44-2.64,8.22,8.22,0,0,1,1.16-4l3.12.6,2.84.55A5.74,5.74,0,0,0,332.34,273.21Z" style="fill:#f0997a"></path><path d="M345.34,281.43,344.11,285a33.68,33.68,0,0,1-7.57-1.73,24.43,24.43,0,0,1-4-1.83l1.44-.84,3-1.73A21.78,21.78,0,0,0,345.34,281.43Z" style="fill:#f0997a"></path><g style="opacity:0.2"><path d="M364.5,263l-4.45,2.56a22,22,0,0,0-8.32-2.58l1.23-3.55A30.1,30.1,0,0,1,364.5,263Z" style="fill:#fff"></path><path d="M343.38,263.28a20.52,20.52,0,0,0-6.36,2.27L332.57,263a28.66,28.66,0,0,1,8.83-3.15Z" style="fill:#fff"></path><path d="M371.11,272.11a7.77,7.77,0,0,1-.66,3.22,7.65,7.65,0,0,1-.5,1l-5.13-1-.84-.16a5.89,5.89,0,0,0,.53-4.81l3.7-.43,2.46-.28A7.51,7.51,0,0,1,371.11,272.11Z" style="fill:#fff"></path><path d="M364.5,281.42a23.8,23.8,0,0,1-4,1.82,31,31,0,0,1-4.84,1.32l-2-3.44a20.33,20.33,0,0,0,6.37-2.27l3,1.73Z" style="fill:#fff"></path><path d="M332.34,273.21a5.2,5.2,0,0,0,.22.84l-6.16.71a7.86,7.86,0,0,1-.44-2.64,8.22,8.22,0,0,1,1.16-4l3.12.6,2.84.55A5.74,5.74,0,0,0,332.34,273.21Z" style="fill:#fff"></path><path d="M345.34,281.43,344.11,285a33.68,33.68,0,0,1-7.57-1.73,24.43,24.43,0,0,1-4-1.83l1.44-.84,3-1.73A21.78,21.78,0,0,0,345.34,281.43Z" style="fill:#fff"></path></g><path d="M337.49,287.39l-13,5.64h0L323,315.67a7.56,7.56,0,0,0,0,.83c0,3.78,2.49,7.56,7.49,10.45,10,5.77,26.21,5.77,36.21,0-7.6,2.36-10.73,2.32-16.75-1.59C339.86,318.84,338.94,295.31,337.49,287.39Z" style="fill:#f0997a"></path><path d="M364,279.3v-.24c-1.78-4-8.1-6.94-15.65-6.94-7.37,0-13.57,2.81-15.52,6.65a7.68,7.68,0,0,0,1.2,1.81l3-1.73a21.78,21.78,0,0,0,8.32,2.58v4.12a27.41,27.41,0,0,0,8.34-.31v-4.12a20.33,20.33,0,0,0,6.37-2.27l3,1.73A8.22,8.22,0,0,0,364,279.3Z" style="fill:#fff;opacity:0.07"></path><polygon points="262.58 375.76 340.75 330.64 337.49 287.39 330.97 283.63 321.2 289.27 321.2 293.03 314.69 296.79 311.43 294.91 301.66 300.56 301.66 304.31 295.15 308.08 291.89 306.19 282.12 311.84 282.12 315.6 275.61 319.36 272.33 317.46 262.58 323.12 262.58 375.76" style="fill:#f0997a"></polygon><polygon points="262.58 375.76 340.75 330.64 337.49 287.39 330.97 283.63 321.2 289.27 321.2 293.03 314.69 296.79 311.43 294.91 301.66 300.56 301.66 304.31 295.15 308.08 291.89 306.19 282.12 311.84 282.12 315.6 275.61 319.36 272.33 317.46 262.58 323.12 262.58 375.76" style="fill:#fff;opacity:0.12"></polygon><path d="M273.55,324.31l-4.45,2.57-6.52-3.76v52.65L286.39,362C277.23,367.31,275.81,346.8,273.55,324.31Z" style="fill:#f0997a"></path><g style="opacity:0.1"><polygon points="308.18 308.07 298.41 313.72 298.41 309.96 295.15 308.07 301.66 304.31 308.18 308.07" style="fill:#fff"></polygon><polygon points="327.72 296.79 317.95 302.44 317.95 298.67 314.69 296.79 321.2 293.03 327.72 296.79" style="fill:#fff"></polygon><polygon points="288.64 319.36 278.86 325 278.86 321.24 275.61 319.36 282.12 315.6 288.64 319.36" style="fill:#fff"></polygon></g><g style="opacity:0.2"><polygon points="337.49 287.39 327.72 293.03 321.2 289.27 330.97 283.63 337.49 287.39" style="fill:#fff"></polygon><polygon points="317.95 298.67 308.18 304.31 301.66 300.55 311.43 294.91 317.95 298.67" style="fill:#fff"></polygon><polygon points="298.41 309.95 288.64 315.6 282.12 311.84 291.89 306.19 298.41 309.95" style="fill:#fff"></polygon><polygon points="278.87 321.24 269.1 326.88 262.58 323.12 272.35 317.48 278.87 321.24" style="fill:#fff"></polygon></g><polygon points="321.2 293.03 327.72 296.79 327.72 293.03 321.2 289.27 321.2 293.03" style="fill:#f0997a"></polygon><polygon points="301.67 304.31 308.19 308.08 308.19 304.31 301.67 300.56 301.67 304.31" style="fill:#f0997a"></polygon><polygon points="282.14 315.6 288.65 319.36 288.65 315.6 282.14 311.84 282.14 315.6" style="fill:#f0997a"></polygon><polygon points="262.61 326.88 269.12 330.64 269.12 326.88 262.61 323.12 262.61 326.88" style="fill:#f0997a"></polygon><g style="opacity:0.05"><polygon points="321.2 293.03 327.72 296.79 327.72 293.03 321.2 289.27 321.2 293.03"></polygon><polygon points="301.67 304.31 308.19 308.08 308.19 304.31 301.67 300.56 301.67 304.31"></polygon><polygon points="282.14 315.6 288.65 319.36 288.65 315.6 282.14 311.84 282.14 315.6"></polygon><polygon points="262.61 326.88 269.12 330.64 269.12 326.88 262.61 323.12 262.61 326.88"></polygon></g><path d="M297.37,342.23c-.53-6.62,2.69-14.09,7.18-16.68s8.58.66,9.11,7.28l1,12.85-16.28,9.4Z" style="fill:#f0997a"></path><path d="M297.37,342.23c-.53-6.62,2.69-14.09,7.18-16.68s8.58.66,9.11,7.28l1,12.85-16.28,9.4Z" style="opacity:0.1"></path><path d="M310.4,331a11,11,0,0,0-2.22-6.24,5.67,5.67,0,0,0-3.63.84c-4.49,2.59-7.71,10.06-7.18,16.68l.75,9.26,13.31-7.69Z" style="fill:#f0997a"></path><path d="M124.62,315.67h0l3-43.57.88,3.23h6.25v4a8.22,8.22,0,0,0,.92,1.28l3-1.73a20.33,20.33,0,0,0,6.37,2.27v4.12a27.41,27.41,0,0,0,8.34.31v-4.12a21.83,21.83,0,0,0,8.32-2.58l3,1.73a7.28,7.28,0,0,0,1.45-2.41v-2.84h6.16v-.57l.44-2.66,3,43.57a7.56,7.56,0,0,1,0,.83c0,3.78-2.49,7.56-7.49,10.45-10,5.77-26.21,5.77-36.21,0C126.71,323.85,124.23,319.73,124.62,315.67Z" style="fill:#f0997a"></path><path d="M124.62,315.67h0l3-43.57.88,3.23h6.25v4a8.22,8.22,0,0,0,.92,1.28l3-1.73a20.33,20.33,0,0,0,6.37,2.27v4.12a27.41,27.41,0,0,0,8.34.31v-4.12a21.83,21.83,0,0,0,8.32-2.58l3,1.73a7.28,7.28,0,0,0,1.45-2.41v-2.84h6.16v-.57l.44-2.66,3,43.57a7.56,7.56,0,0,1,0,.83c0,3.78-2.49,7.56-7.49,10.45-10,5.77-26.21,5.77-36.21,0C126.71,323.85,124.23,319.73,124.62,315.67Z" style="fill:#fff;opacity:0.12"></path><path d="M147,263.42v3.67a28.47,28.47,0,0,1,8.35.31v-3.75A38.82,38.82,0,0,0,147,263.42Z" style="fill:#f0997a"></path><path d="M161.69,269.68a10.4,10.4,0,0,1,3.94,3.68l.74-.15,5.22-1a12.56,12.56,0,0,0-3.13-3.53,18.39,18.39,0,0,0-2.32-1.57Z" style="fill:#f0997a"></path><path d="M128,273.77h0l6.14.71.09-.23a9.57,9.57,0,0,1,4.37-4.57l-4.45-2.57a16.64,16.64,0,0,0-3.71,2.82,10.34,10.34,0,0,0-2.46,3.81Z" style="fill:#f0997a"></path><path d="M128.76,280.45a14.39,14.39,0,0,0,5.45,5.09l4-2.3.43-.25,0,0a11.75,11.75,0,0,1-3-2.39,8.22,8.22,0,0,1-.92-1.28Z" style="fill:#f0997a"></path><path d="M143,288.69a38.92,38.92,0,0,0,11.56.42l-1.23-3.56a27.41,27.41,0,0,1-8.34-.31Z" style="fill:#f0997a"></path><path d="M161.69,283l.48.28,4,2.29c3.28-1.89,5.34-4.22,6.17-6.66l-6.16-.71a7.28,7.28,0,0,1-1.45,2.41,11,11,0,0,1-2.42,2C162.09,282.74,161.89,282.86,161.69,283Z" style="fill:#f0997a"></path><g style="opacity:0.2"><path d="M147,263.42v3.67a28.47,28.47,0,0,1,8.35.31v-3.75A38.82,38.82,0,0,0,147,263.42Z" style="fill:#fff"></path><path d="M161.69,269.68a10.4,10.4,0,0,1,3.94,3.68l.74-.15,5.22-1a12.56,12.56,0,0,0-3.13-3.53,18.39,18.39,0,0,0-2.32-1.57Z" style="fill:#fff"></path><path d="M128,273.77h0l6.14.71.09-.23a9.57,9.57,0,0,1,4.37-4.57l-4.45-2.57a16.64,16.64,0,0,0-3.71,2.82,10.34,10.34,0,0,0-2.46,3.81Z" style="fill:#fff"></path><path d="M128.76,280.45a14.39,14.39,0,0,0,5.45,5.09l4-2.3.43-.25,0,0a11.75,11.75,0,0,1-3-2.39,8.22,8.22,0,0,1-.92-1.28Z" style="fill:#fff"></path><path d="M143,288.69a38.92,38.92,0,0,0,11.56.42l-1.23-3.56a27.41,27.41,0,0,1-8.34-.31Z" style="fill:#fff"></path><path d="M161.69,283l.48.28,4,2.29c3.28-1.89,5.34-4.22,6.17-6.66l-6.16-.71a7.28,7.28,0,0,1-1.45,2.41,11,11,0,0,1-2.42,2C162.09,282.74,161.89,282.86,161.69,283Z" style="fill:#fff"></path></g><path d="M161.69,283c-6.36,3.67-16.67,3.67-23,0s-6.37-9.63,0-13.3,16.67-3.68,23,0S168.06,279.3,161.69,283Z" style="fill:#ffbda7"></path><polygon points="154.6 289.11 154.6 284.99 166.14 281.42 166.14 285.54 154.6 289.11" style="fill:#f0997a"></polygon><polygon points="143.04 288.69 143.04 284.57 134.21 281.42 134.21 285.54 143.04 288.69" style="fill:#f0997a"></polygon><polygon points="154.6 289.11 154.6 284.99 166.14 281.42 166.14 285.54 154.6 289.11" style="fill:#fff;opacity:0.12"></polygon><polygon points="143.04 288.69 143.04 284.57 134.21 281.42 134.21 285.54 143.04 288.69" style="fill:#fff;opacity:0.12"></polygon><polygon points="143.04 284.56 143.04 288.69 145.03 285.24 145.03 281.12 143.04 284.56" style="fill:#f0997a"></polygon><polygon points="128.76 276.32 128.76 280.45 134.73 279.3 134.73 275.17 133.88 275.33 128.76 276.32" style="fill:#f0997a"></polygon><polygon points="134.21 262.99 134.21 267.11 138.66 269.68 138.66 265.56 134.21 262.99" style="fill:#f0997a"></polygon><polygon points="161.69 265.56 161.69 269.68 166.14 267.11 166.14 262.99 161.69 265.56" style="fill:#f0997a"></polygon><polygon points="166.15 274.05 166.15 278.17 172.31 278.88 172.31 274.76 166.15 274.05" style="fill:#f0997a"></polygon><polygon points="153.37 281.43 153.37 285.55 154.6 289.11 154.6 284.98 153.37 281.43" style="fill:#f0997a"></polygon><g style="opacity:0.08"><polygon points="143.04 284.56 143.04 288.69 145.03 285.24 145.03 281.12 143.04 284.56"></polygon><polygon points="128.76 276.32 128.76 280.45 134.73 279.3 134.73 275.17 133.88 275.33 128.76 276.32"></polygon><polygon points="134.21 262.99 134.21 267.11 138.66 269.68 138.66 265.56 134.21 262.99"></polygon><polygon points="161.69 265.56 161.69 269.68 166.14 267.11 166.14 262.99 161.69 265.56"></polygon><polygon points="166.15 274.05 166.15 278.17 172.31 278.88 172.31 274.76 166.15 274.05"></polygon><polygon points="153.37 281.43 153.37 285.55 154.6 289.11 154.6 284.98 153.37 281.43"></polygon></g><path d="M138.66,269.68v-4.13A22,22,0,0,1,147,263v4.12a28.47,28.47,0,0,1,8.35.31v-4.12a20.52,20.52,0,0,1,6.36,2.27v4.13a10.4,10.4,0,0,1,3.94,3.68v-4.13a5.8,5.8,0,0,1,.52,4.82v4.12a7.28,7.28,0,0,1-1.45,2.41l-3-1.73a21.83,21.83,0,0,1-8.32,2.58v4.12a27.41,27.41,0,0,1-8.34-.31v-4.12a20.33,20.33,0,0,1-6.37-2.27l-3,1.73a8.22,8.22,0,0,1-.92-1.28v-4.13a5.5,5.5,0,0,1-.44-.92A9.57,9.57,0,0,1,138.66,269.68Z" style="fill:#f0997a"></path><path d="M138.66,269.68v-4.13A22,22,0,0,1,147,263v4.12a28.47,28.47,0,0,1,8.35.31v-4.12a20.52,20.52,0,0,1,6.36,2.27v4.13a10.4,10.4,0,0,1,3.94,3.68v-4.13a5.8,5.8,0,0,1,.52,4.82v4.12a7.28,7.28,0,0,1-1.45,2.41l-3-1.73a21.83,21.83,0,0,1-8.32,2.58v4.12a27.41,27.41,0,0,1-8.34-.31v-4.12a20.33,20.33,0,0,1-6.37-2.27l-3,1.73a8.22,8.22,0,0,1-.92-1.28v-4.13a5.5,5.5,0,0,1-.44-.92A9.57,9.57,0,0,1,138.66,269.68Z" style="opacity:0.03"></path><path d="M134.21,263l4.45,2.56A22,22,0,0,1,147,263l-1.23-3.55A30.1,30.1,0,0,0,134.21,263Z" style="fill:#f0997a"></path><path d="M155.33,263.28a20.52,20.52,0,0,1,6.36,2.27l4.45-2.56a28.66,28.66,0,0,0-8.83-3.15Z" style="fill:#f0997a"></path><path d="M127.6,272.11a7.77,7.77,0,0,0,.66,3.22,7.65,7.65,0,0,0,.5,1l5.12-1,.85-.16a5.89,5.89,0,0,1-.53-4.81l-3.7-.43-2.47-.28A7.77,7.77,0,0,0,127.6,272.11Z" style="fill:#f0997a"></path><path d="M134.21,281.42a24.06,24.06,0,0,0,4,1.82,31.43,31.43,0,0,0,4.85,1.32l2-3.44a20.33,20.33,0,0,1-6.37-2.27l-3,1.73Z" style="fill:#f0997a"></path><path d="M166.37,273.21a6.5,6.5,0,0,1-.22.84l6.16.71a7.86,7.86,0,0,0,.44-2.64,8.22,8.22,0,0,0-1.16-4l-3.13.6-2.83.55A5.74,5.74,0,0,1,166.37,273.21Z" style="fill:#f0997a"></path><path d="M153.37,281.43,154.6,285a33.68,33.68,0,0,0,7.57-1.73,24.43,24.43,0,0,0,4-1.83l-1.44-.84-3-1.73A21.83,21.83,0,0,1,153.37,281.43Z" style="fill:#f0997a"></path><g style="opacity:0.2"><path d="M134.21,263l4.45,2.56A22,22,0,0,1,147,263l-1.23-3.55A30.1,30.1,0,0,0,134.21,263Z" style="fill:#fff"></path><path d="M155.33,263.28a20.52,20.52,0,0,1,6.36,2.27l4.45-2.56a28.66,28.66,0,0,0-8.83-3.15Z" style="fill:#fff"></path><path d="M127.6,272.11a7.77,7.77,0,0,0,.66,3.22,7.65,7.65,0,0,0,.5,1l5.12-1,.85-.16a5.89,5.89,0,0,1-.53-4.81l-3.7-.43-2.47-.28A7.77,7.77,0,0,0,127.6,272.11Z" style="fill:#fff"></path><path d="M134.21,281.42a24.06,24.06,0,0,0,4,1.82,31.43,31.43,0,0,0,4.85,1.32l2-3.44a20.33,20.33,0,0,1-6.37-2.27l-3,1.73Z" style="fill:#fff"></path><path d="M166.37,273.21a6.5,6.5,0,0,1-.22.84l6.16.71a7.86,7.86,0,0,0,.44-2.64,8.22,8.22,0,0,0-1.16-4l-3.13.6-2.83.55A5.74,5.74,0,0,1,166.37,273.21Z" style="fill:#fff"></path><path d="M153.37,281.43,154.6,285a33.68,33.68,0,0,0,7.57-1.73,24.43,24.43,0,0,0,4-1.83l-1.44-.84-3-1.73A21.83,21.83,0,0,1,153.37,281.43Z" style="fill:#fff"></path></g><path d="M161.22,287.39l13,5.64h0l1.55,22.64a7.56,7.56,0,0,1,0,.83c0,3.78-2.49,7.56-7.49,10.45-10,5.77-26.21,5.77-36.21,0,7.6,2.36,10.73,2.32,16.75-1.59C158.85,318.84,159.77,295.31,161.22,287.39Z" style="fill:#f0997a"></path><path d="M134.73,279.3v-.24c1.78-4,8.1-6.94,15.65-6.94,7.37,0,13.57,2.81,15.52,6.65a7.68,7.68,0,0,1-1.2,1.81l-3-1.73a21.83,21.83,0,0,1-8.32,2.58v4.12a27.41,27.41,0,0,1-8.34-.31v-4.12a20.33,20.33,0,0,1-6.37-2.27l-3,1.73A8.22,8.22,0,0,1,134.73,279.3Z" style="fill:#fff;opacity:0.07"></path><polygon points="236.13 375.76 157.97 330.64 161.22 287.39 167.74 283.63 177.5 289.27 177.5 293.03 184.02 296.79 187.28 294.91 197.05 300.56 197.05 304.31 203.56 308.08 206.82 306.19 216.59 311.84 216.59 315.6 223.1 319.36 226.38 317.46 236.13 323.12 236.13 375.76" style="fill:#f0997a"></polygon><polygon points="236.13 375.76 157.97 330.64 161.22 287.39 167.74 283.63 177.5 289.27 177.5 293.03 184.02 296.79 187.28 294.91 197.05 300.56 197.05 304.31 203.56 308.08 206.82 306.19 216.59 311.84 216.59 315.6 223.1 319.36 226.38 317.46 236.13 323.12 236.13 375.76" style="fill:#fff;opacity:0.12"></polygon><path d="M225.16,324.31l4.45,2.57,6.52-3.76v52.65L212.32,362C221.48,367.31,222.9,346.8,225.16,324.31Z" style="fill:#f0997a"></path><g style="opacity:0.1"><polygon points="190.53 308.07 200.3 313.72 200.3 309.96 203.56 308.07 197.05 304.31 190.53 308.07" style="fill:#fff"></polygon><polygon points="170.99 296.79 180.76 302.44 180.76 298.67 184.02 296.79 177.51 293.03 170.99 296.79" style="fill:#fff"></polygon><polygon points="210.07 319.36 219.84 325 219.84 321.24 223.1 319.36 216.59 315.6 210.07 319.36" style="fill:#fff"></polygon></g><g style="opacity:0.2"><polygon points="161.22 287.39 170.99 293.03 177.5 289.27 167.74 283.63 161.22 287.39" style="fill:#fff"></polygon><polygon points="180.76 298.67 190.53 304.31 197.05 300.55 187.28 294.91 180.76 298.67" style="fill:#fff"></polygon><polygon points="200.3 309.95 210.07 315.6 216.59 311.84 206.82 306.19 200.3 309.95" style="fill:#fff"></polygon><polygon points="219.84 321.24 229.61 326.88 236.13 323.12 226.36 317.48 219.84 321.24" style="fill:#fff"></polygon></g><polygon points="177.5 293.03 170.99 296.79 170.99 293.03 177.5 289.27 177.5 293.03" style="fill:#f0997a"></polygon><polygon points="197.04 304.31 190.52 308.08 190.53 304.31 197.04 300.56 197.04 304.31" style="fill:#f0997a"></polygon><polygon points="216.57 315.6 210.06 319.36 210.06 315.6 216.57 311.84 216.57 315.6" style="fill:#f0997a"></polygon><polygon points="236.1 326.88 229.59 330.64 229.59 326.88 236.1 323.12 236.1 326.88" style="fill:#f0997a"></polygon><g style="opacity:0.05"><polygon points="177.5 293.03 170.99 296.79 170.99 293.03 177.5 289.27 177.5 293.03"></polygon><polygon points="197.04 304.31 190.52 308.08 190.53 304.31 197.04 300.56 197.04 304.31"></polygon><polygon points="216.57 315.6 210.06 319.36 210.06 315.6 216.57 311.84 216.57 315.6"></polygon><polygon points="236.1 326.88 229.59 330.64 229.59 326.88 236.1 323.12 236.1 326.88"></polygon></g><path d="M201.34,342.23c.53-6.62-2.69-14.09-7.18-16.68s-8.58.66-9.11,7.28l-1,12.85,16.28,9.4Z" style="fill:#f0997a"></path><path d="M201.34,342.23c.53-6.62-2.69-14.09-7.18-16.68s-8.58.66-9.11,7.28l-1,12.85,16.28,9.4Z" style="opacity:0.1"></path><path d="M188.31,331a11,11,0,0,1,2.22-6.24,5.67,5.67,0,0,1,3.63.84c4.49,2.59,7.71,10.06,7.18,16.68l-.75,9.26-13.31-7.69Z" style="fill:#f0997a"></path><path d="M275.11,368.56h0l-3-43.57-.89,3.23H265v4a7.36,7.36,0,0,1-.93,1.29l-3-1.73a20.42,20.42,0,0,1-6.37,2.27v4.12a27.78,27.78,0,0,1-8.35.31v-4.13a21.65,21.65,0,0,1-8.32-2.57l-3,1.73a7.28,7.28,0,0,1-1.45-2.41v-2.84h-6.17v-.57L227,325l-3,43.57c0,.27,0,.55,0,.82,0,3.79,2.5,7.57,7.5,10.46,10,5.77,26.21,5.77,36.21,0C273,376.74,275.51,372.62,275.11,368.56Z" style="fill:#f0997a"></path><path d="M275.11,368.56h0l-3-43.57-.89,3.23H265v4a7.36,7.36,0,0,1-.93,1.29l-3-1.73a20.42,20.42,0,0,1-6.37,2.27v4.12a27.78,27.78,0,0,1-8.35.31v-4.13a21.65,21.65,0,0,1-8.32-2.57l-3,1.73a7.28,7.28,0,0,1-1.45-2.41v-2.84h-6.17v-.57L227,325l-3,43.57c0,.27,0,.55,0,.82,0,3.79,2.5,7.57,7.5,10.46,10,5.77,26.21,5.77,36.21,0C273,376.74,275.51,372.62,275.11,368.56Z" style="fill:#fff;opacity:0.12"></path><path d="M252.76,316.31V320a28.19,28.19,0,0,0-8.36.31v-3.75A38.28,38.28,0,0,1,252.76,316.31Z" style="fill:#f0997a"></path><path d="M238,322.57a10.49,10.49,0,0,0-3.93,3.67l-.74-.14-5.23-1a12.55,12.55,0,0,1,3.13-3.52A19.29,19.29,0,0,1,233.6,320Z" style="fill:#f0997a"></path><path d="M271.7,326.66h0l-6.15.71a1.55,1.55,0,0,0-.08-.23,9.57,9.57,0,0,0-4.37-4.57l4.45-2.57a16.35,16.35,0,0,1,3.71,2.82,10.35,10.35,0,0,1,2.45,3.81A.1.1,0,0,1,271.7,326.66Z" style="fill:#f0997a"></path><path d="M271,333.33a14.4,14.4,0,0,1-5.45,5.1l-4-2.3-.43-.25,0,0a11.69,11.69,0,0,0,3-2.39,7.36,7.36,0,0,0,.93-1.29Z" style="fill:#f0997a"></path><path d="M256.69,341.57a38.24,38.24,0,0,1-11.56.42l1.23-3.55a27.78,27.78,0,0,0,8.35-.31Z" style="fill:#f0997a"></path><path d="M238,335.86l-.47.28-4,2.29c-3.29-1.89-5.34-4.22-6.18-6.66l6.17-.71a7.28,7.28,0,0,0,1.45,2.41,11.23,11.23,0,0,0,2.41,2C237.65,335.63,237.84,335.75,238,335.86Z" style="fill:#f0997a"></path><g style="opacity:0.2"><path d="M252.76,316.31V320a28.19,28.19,0,0,0-8.36.31v-3.75A38.28,38.28,0,0,1,252.76,316.31Z" style="fill:#fff"></path><path d="M238,322.57a10.49,10.49,0,0,0-3.93,3.67l-.74-.14-5.23-1a12.55,12.55,0,0,1,3.13-3.52A19.29,19.29,0,0,1,233.6,320Z" style="fill:#fff"></path><path d="M271.7,326.66h0l-6.15.71a1.55,1.55,0,0,0-.08-.23,9.57,9.57,0,0,0-4.37-4.57l4.45-2.57a16.35,16.35,0,0,1,3.71,2.82,10.35,10.35,0,0,1,2.45,3.81A.1.1,0,0,1,271.7,326.66Z" style="fill:#fff"></path><path d="M271,333.33a14.4,14.4,0,0,1-5.45,5.1l-4-2.3-.43-.25,0,0a11.69,11.69,0,0,0,3-2.39,7.36,7.36,0,0,0,.93-1.29Z" style="fill:#fff"></path><path d="M256.69,341.57a38.24,38.24,0,0,1-11.56.42l1.23-3.55a27.78,27.78,0,0,0,8.35-.31Z" style="fill:#fff"></path><path d="M238,335.86l-.47.28-4,2.29c-3.29-1.89-5.34-4.22-6.18-6.66l6.17-.71a7.28,7.28,0,0,0,1.45,2.41,11.23,11.23,0,0,0,2.41,2C237.65,335.63,237.84,335.75,238,335.86Z" style="fill:#fff"></path></g><path d="M238,335.86c6.36,3.68,16.68,3.68,23,0s6.36-9.62,0-13.3-16.68-3.67-23,0S231.68,332.19,238,335.86Z" style="fill:#ffbda7"></path><polygon points="245.13 342 245.13 337.88 233.6 334.31 233.6 338.43 245.13 342" style="fill:#f0997a"></polygon><polygon points="256.69 341.57 256.69 337.45 265.53 334.31 265.53 338.43 256.69 341.57" style="fill:#f0997a"></polygon><polygon points="245.13 342 245.13 337.88 233.6 334.31 233.6 338.43 245.13 342" style="fill:#fff;opacity:0.12"></polygon><polygon points="256.69 341.57 256.69 337.45 265.53 334.31 265.53 338.43 256.69 341.57" style="fill:#fff;opacity:0.12"></polygon><polygon points="256.69 337.45 256.69 341.57 254.71 338.13 254.71 334.01 256.69 337.45" style="fill:#f0997a"></polygon><polygon points="270.98 329.21 270.98 333.33 265.01 332.18 265.01 328.06 265.85 328.22 270.98 329.21" style="fill:#f0997a"></polygon><polygon points="265.53 315.87 265.53 320 261.08 322.57 261.08 318.44 265.53 315.87" style="fill:#f0997a"></polygon><polygon points="238.04 318.44 238.04 322.57 233.6 320 233.6 315.87 238.04 318.44" style="fill:#f0997a"></polygon><polygon points="233.59 326.93 233.59 331.06 227.42 331.77 227.42 327.65 233.59 326.93" style="fill:#f0997a"></polygon><polygon points="246.37 334.31 246.37 338.44 245.13 342 245.13 337.87 246.37 334.31" style="fill:#f0997a"></polygon><g style="opacity:0.08"><polygon points="256.69 337.45 256.69 341.57 254.71 338.13 254.71 334.01 256.69 337.45"></polygon><polygon points="270.98 329.21 270.98 333.33 265.01 332.18 265.01 328.06 265.85 328.22 270.98 329.21"></polygon><polygon points="265.53 315.87 265.53 320 261.08 322.57 261.08 318.44 265.53 315.87"></polygon><polygon points="238.04 318.44 238.04 322.57 233.6 320 233.6 315.87 238.04 318.44"></polygon><polygon points="233.59 326.93 233.59 331.06 227.42 331.77 227.42 327.65 233.59 326.93"></polygon><polygon points="246.37 334.31 246.37 338.44 245.13 342 245.13 337.87 246.37 334.31"></polygon></g><path d="M261.08,322.57v-4.13a21.77,21.77,0,0,0-8.32-2.58V320a28.19,28.19,0,0,0-8.36.31v-4.12a20.36,20.36,0,0,0-6.36,2.27v4.13a10.49,10.49,0,0,0-3.93,3.67v-4.12a5.74,5.74,0,0,0-.52,4.81v4.13a7.28,7.28,0,0,0,1.45,2.41l3-1.73a21.65,21.65,0,0,0,8.32,2.57v4.13a27.78,27.78,0,0,0,8.35-.31V334a20.42,20.42,0,0,0,6.37-2.27l3,1.73a7.36,7.36,0,0,0,.93-1.29v-4.12a7,7,0,0,0,.44-.92A9.57,9.57,0,0,0,261.08,322.57Z" style="fill:#f0997a"></path><path d="M261.08,322.57v-4.13a21.77,21.77,0,0,0-8.32-2.58V320a28.19,28.19,0,0,0-8.36.31v-4.12a20.36,20.36,0,0,0-6.36,2.27v4.13a10.49,10.49,0,0,0-3.93,3.67v-4.12a5.74,5.74,0,0,0-.52,4.81v4.13a7.28,7.28,0,0,0,1.45,2.41l3-1.73a21.65,21.65,0,0,0,8.32,2.57v4.13a27.78,27.78,0,0,0,8.35-.31V334a20.42,20.42,0,0,0,6.37-2.27l3,1.73a7.36,7.36,0,0,0,.93-1.29v-4.12a7,7,0,0,0,.44-.92A9.57,9.57,0,0,0,261.08,322.57Z" style="opacity:0.03"></path><path d="M265.53,315.87l-4.45,2.57a21.77,21.77,0,0,0-8.32-2.58l1.23-3.55A30.15,30.15,0,0,1,265.53,315.87Z" style="fill:#f0997a"></path><path d="M244.4,316.17a20.36,20.36,0,0,0-6.36,2.27l-4.44-2.57a28.47,28.47,0,0,1,8.83-3.14Z" style="fill:#f0997a"></path><path d="M272.14,325a7.82,7.82,0,0,1-.67,3.22,7,7,0,0,1-.49,1l-5.13-1-.84-.16a7,7,0,0,0,.44-.92,5.44,5.44,0,0,0,.08-3.89l3.71-.43,2.46-.29A7.84,7.84,0,0,1,272.14,325Z" style="fill:#f0997a"></path><path d="M265.53,334.31a24.17,24.17,0,0,1-4,1.82,31.43,31.43,0,0,1-4.85,1.32l-2-3.44a20.42,20.42,0,0,0,6.37-2.27l3,1.73Z" style="fill:#f0997a"></path><path d="M233.37,326.1a5.09,5.09,0,0,0,.22.83l-6.17.72A8.14,8.14,0,0,1,227,325a8.29,8.29,0,0,1,1.16-4l3.13.6,2.84.55A5.69,5.69,0,0,0,233.37,326.1Z" style="fill:#f0997a"></path><path d="M246.36,334.31l-1.23,3.56a34,34,0,0,1-7.56-1.73,24.43,24.43,0,0,1-4-1.83l1.44-.84,3-1.73A21.65,21.65,0,0,0,246.36,334.31Z" style="fill:#f0997a"></path><g style="opacity:0.2"><path d="M265.53,315.87l-4.45,2.57a21.77,21.77,0,0,0-8.32-2.58l1.23-3.55A30.15,30.15,0,0,1,265.53,315.87Z" style="fill:#fff"></path><path d="M244.4,316.17a20.36,20.36,0,0,0-6.36,2.27l-4.44-2.57a28.47,28.47,0,0,1,8.83-3.14Z" style="fill:#fff"></path><path d="M272.14,325a7.82,7.82,0,0,1-.67,3.22,7,7,0,0,1-.49,1l-5.13-1-.84-.16a7,7,0,0,0,.44-.92,5.44,5.44,0,0,0,.08-3.89l3.71-.43,2.46-.29A7.84,7.84,0,0,1,272.14,325Z" style="fill:#fff"></path><path d="M265.53,334.31a24.17,24.17,0,0,1-4,1.82,31.43,31.43,0,0,1-4.85,1.32l-2-3.44a20.42,20.42,0,0,0,6.37-2.27l3,1.73Z" style="fill:#fff"></path><path d="M233.37,326.1a5.09,5.09,0,0,0,.22.83l-6.17.72A8.14,8.14,0,0,1,227,325a8.29,8.29,0,0,1,1.16-4l3.13.6,2.84.55A5.69,5.69,0,0,0,233.37,326.1Z" style="fill:#fff"></path><path d="M246.36,334.31l-1.23,3.56a34,34,0,0,1-7.56-1.73,24.43,24.43,0,0,1-4-1.83l1.44-.84,3-1.73A21.65,21.65,0,0,0,246.36,334.31Z" style="fill:#fff"></path></g><path d="M229.81,372.12c-3.93-4.6-4.84-19.73-4.27-26h0L224,368.56c0,.27,0,.55,0,.82,0,3.79,2.5,7.57,7.5,10.46,10,5.77,26.21,5.77,36.21,0C253.43,384.25,238,381.74,229.81,372.12Z" style="fill:#f0997a"></path><path d="M265,332.18v-.24c-1.78-4-8.11-6.93-15.66-6.93-7.36,0-13.57,2.81-15.52,6.65a7.44,7.44,0,0,0,1.21,1.81l3-1.73a21.65,21.65,0,0,0,8.32,2.57v4.13a27.78,27.78,0,0,0,8.35-.31V334a20.42,20.42,0,0,0,6.37-2.27l3,1.73A7.36,7.36,0,0,0,265,332.18Z" style="fill:#fff;opacity:0.07"></path><path d="M276.26,232.62h0a9.93,9.93,0,0,1-1.83,5.44l-4.32-2.49a36.37,36.37,0,0,1-11.46,4.08V247a43.23,43.23,0,0,1-5.41.79,46.48,46.48,0,0,1-5.15.14c-.42,0-.86,0-1.29-.05s-.86,0-1.29-.09c-.62-.05-1.26-.12-1.89-.2v-7.4a39.17,39.17,0,0,1-15-4.63l-4.32,2.49a10,10,0,0,1-1.84-5.44v-.06c0-.2,0-.4,0-.59.66-17.44,26.87-55.57,26.87-55.57s26.43,38.44,26.87,55.78a1.08,1.08,0,0,1,0,.31S276.26,232.58,276.26,232.62Z" style="fill:#f0997a"></path><path d="M276.26,232.62h0a9.93,9.93,0,0,1-1.83,5.44l-4.32-2.49a36.37,36.37,0,0,1-11.46,4.08V247a43.23,43.23,0,0,1-5.41.79,46.48,46.48,0,0,1-5.15.14c-.42,0-.86,0-1.29-.05s-.86,0-1.29-.09c-.62-.05-1.26-.12-1.89-.2v-7.4a39.17,39.17,0,0,1-15-4.63l-4.32,2.49a10,10,0,0,1-1.84-5.44v-.06c0-.2,0-.4,0-.59.66-17.44,26.87-55.57,26.87-55.57s26.43,38.44,26.87,55.78a1.08,1.08,0,0,1,0,.31S276.26,232.58,276.26,232.62Z" style="fill:#fff;opacity:0.12"></path><path d="M235.71,226.93c-4.2-9.88-1-26.53,8.58-42.78-7.66,12.07-21.33,35.28-21.8,47.82,0,.19,0,.39,0,.59v.06a10,10,0,0,0,1.84,5.44l4.32-2.49a39.17,39.17,0,0,0,15,4.63v7.4c.63.08,1.27.15,1.89.2.43,0,.85.07,1.29.09s.87,0,1.29.05a46.48,46.48,0,0,0,5.15-.14,43.23,43.23,0,0,0,5.41-.79v-5.42C249.24,241.24,239.51,235.89,235.71,226.93Zm40.53,5.56a1.08,1.08,0,0,0,0-.31c0-.57-.06-1.16-.13-1.77a8.35,8.35,0,0,1-3.14,6.82l1.45.83a9.93,9.93,0,0,0,1.83-5.44h0S276.24,232.53,276.24,232.49Z" style="opacity:0.05"></path><path d="M249.1,179.91a2.15,2.15,0,0,0,.8,0V135.64a.6.6,0,0,0-.6-.6.59.59,0,0,0-.6.6v44.17C248.83,179.84,249,179.89,249.1,179.91Z" style="fill:#455a64"></path><polygon points="249.87 139.33 272.12 157.06 249.87 156.9 249.87 139.33" style="fill:#04D9C4"></polygon><path d="M348,278.59a2.15,2.15,0,0,0,.8,0V234.32a.6.6,0,1,0-1.2,0v44.17A2.92,2.92,0,0,0,348,278.59Z" style="fill:#455a64"></path><polygon points="348.73 238.02 370.98 255.74 348.73 255.59 348.73 238.02" style="fill:#37474f"></polygon><path d="M150.38,277.68a2.15,2.15,0,0,0,.8,0V233.41a.6.6,0,1,0-1.2,0v44.18Z" style="fill:#263238"></path><polygon points="151.15 237.11 173.4 254.83 151.15 254.68 151.15 237.11" style="fill:#04D9C4"></polygon><polygon points="151.15 237.11 173.4 254.83 151.15 254.68 151.15 237.11" style="fill:#fff;opacity:0.6000000000000001"></polygon></g><path d="M136.25,327.93c3,.53,6.45,2.71,7.08,5.87-.17,4.22-8,2.05-10.32.86a1.78,1.78,0,0,0-1.09.51,12.33,12.33,0,0,1-15.66-1,1.67,1.67,0,0,0-2.07-.52c-5.22,1.81-11.15.6-14.61-3.78-2.79,1-8.41-.14-7.07-3.52,1.22-3.07,5.3-2.91,8.14-2.46.58-2.79,1.66-5.09,5.91-6a6.34,6.34,0,0,1,4.45.65,14.5,14.5,0,0,1,16.26-6.8C134.12,313.38,136.69,321.56,136.25,327.93Z" style="fill:#f0997a"></path><path d="M130.21,313a9.84,9.84,0,0,0-2.94-1.27,14.52,14.52,0,0,0-16.27,6.8,6.3,6.3,0,0,0-4.44-.65c-4.25.91-5.33,3.21-5.91,6-2.43-.39-5.75-.55-7.43,1.33a7,7,0,0,0,3.69,2.13c2.5.51,3.7.94,5.28-1.08,1.45,1.59,5.49,3.15,7.47,2.32s5-2.92,4.89-5.06c3.4,3.76,6.54,5.46,11.43,4.15C135.88,325,132.41,315.41,130.21,313Z" style="fill:#fff;opacity:0.12"></path><path d="M215.7,349.14a8.44,8.44,0,0,0-3.92,6.61,5.51,5.51,0,0,0-7.88,2.69c-3.46-1.81-8.13-3.43-11.53-.73a15.61,15.61,0,0,0-1.55,1.62,8.32,8.32,0,0,0-7.32.85,3.68,3.68,0,0,0-1.59,3.16,2.65,2.65,0,0,0,1.8,2.32,12,12,0,0,0,7.81.29,17.22,17.22,0,0,0,.69,3.15c1.72,4.71,9.21,6.88,14,5.41-3.93,5.06,1.63,10.65,7.1,10.68a31,31,0,0,0,7.95-.86c4.73,3.92,11.39,4.07,14.75,1.18,2.73,2.66,7.91,2.42,8.8,0,1.78-4.84-5.08-5.85-7.22-5.21a8.5,8.5,0,0,0-8.26-8.65c3.77-2.68,3.54-11.05-2.34-11.46a18.71,18.71,0,0,0,.33-3.47,8.54,8.54,0,0,0-3.65-7.65A8.08,8.08,0,0,0,215.7,349.14Z" style="fill:#f0997a"></path><path d="M225.43,365.88a8.75,8.75,0,0,0,3.77-8.37c-.47-3.19-3.7-6.87-3.7-6.87-1-2.49-4.07-3.41-6.75-3.51a11,11,0,0,0-5.35.91,5.6,5.6,0,0,0-3.19,4.18,1.33,1.33,0,0,1-.2.71,1.23,1.23,0,0,1-1,.24,10.45,10.45,0,0,0-7.69,2.47l20.32,11.73A10.86,10.86,0,0,0,225.43,365.88Z" style="fill:#f0997a"></path><path d="M215.7,349.14a8.44,8.44,0,0,0-3.92,6.61,5.51,5.51,0,0,0-7.88,2.69c-3.46-1.81-8.13-3.43-11.53-.73a15.61,15.61,0,0,0-1.55,1.62,8.32,8.32,0,0,0-7.32.85,3.68,3.68,0,0,0-1.59,3.16,2.65,2.65,0,0,0,1.8,2.32,12,12,0,0,0,7.81.29,17.22,17.22,0,0,0,.69,3.15c1.72,4.71,9.21,6.88,14,5.41-3.93,5.06,1.63,10.65,7.1,10.68a31,31,0,0,0,7.95-.86c4.73,3.92,11.39,4.07,14.75,1.18,2.73,2.66,7.91,2.42,8.8,0,1.78-4.84-5.08-5.85-7.22-5.21a8.5,8.5,0,0,0-8.26-8.65c3.77-2.68,3.54-11.05-2.34-11.46a18.71,18.71,0,0,0,.33-3.47,8.54,8.54,0,0,0-3.65-7.65A8.08,8.08,0,0,0,215.7,349.14Z" style="fill:#fff;opacity:0.12"></path><path d="M244.67,382.45c-1.34-2.22-5.5-2.65-7.08-2.18a8.5,8.5,0,0,0-8.26-8.65c3.77-2.68,3.54-11.05-2.34-11.46a18.71,18.71,0,0,0,.33-3.47,8.9,8.9,0,0,0-2.49-6.71,9.92,9.92,0,0,1-1.28,7.11,7.82,7.82,0,0,1-7,3.61,7.46,7.46,0,0,1,4.46,2.56,3.81,3.81,0,0,1-.08,4.81,9.09,9.09,0,0,1,3.15-.94,3.42,3.42,0,0,1,2.93,1.22,4.4,4.4,0,0,1,.29,3.63,10.49,10.49,0,0,0-.64,3.68,5.64,5.64,0,0,1,8.06,6.47A14.84,14.84,0,0,1,244.67,382.45Z" style="fill:#f0997a"></path><path d="M212.37,383.4a8.48,8.48,0,0,1-3-6.6,15.17,15.17,0,0,1,2-7.14c-1.79.26-3.59.44-5.4.53-2.58.13-5.29.05-7.54-1.2s-3.88-4-3.07-6.44a22.5,22.5,0,0,1-11.27-1,3.71,3.71,0,0,1-1.28-.7,3.44,3.44,0,0,0-.86,2.49,2.65,2.65,0,0,0,1.8,2.32,12,12,0,0,0,7.81.29,17.22,17.22,0,0,0,.69,3.15c1.72,4.71,9.21,6.88,14,5.41-3.93,5.06,1.63,10.65,7.1,10.68a18.87,18.87,0,0,0,3.19-.08A9.51,9.51,0,0,1,212.37,383.4Z" style="fill:#f0997a"></path><path d="M390.74,325.41c-1-1.85-3.29-2.5-5.37-2.56a16.61,16.61,0,0,0-5.89.9c.16-2.82-2.49-5-5.11-6.08s-6.06-1.43-8.21.51a4.56,4.56,0,0,0-7.45-3.28c-.89-4.72-5.23-6.13-9.46-4.46a10.11,10.11,0,0,0-6,11,6.5,6.5,0,0,0-7.73,1.91,8.51,8.51,0,0,0-1.07,8.17,9.44,9.44,0,0,0-5,3.66,2.92,2.92,0,0,0-.55,2.82,2.71,2.71,0,0,0,1.52,1.21,7.39,7.39,0,0,0,5.24.1,3.7,3.7,0,0,1,1.76-.39,3.31,3.31,0,0,1,1.33.68,12.12,12.12,0,0,0,13.81-.27A12,12,0,0,0,366.57,341a10,10,0,0,0,3.19-3.7,10.23,10.23,0,0,0,16.81-6.78,3.57,3.57,0,0,0,4.17-5.07Z" style="fill:#f0997a"></path><path d="M390.74,325.41c-1-1.85-3.29-2.5-5.37-2.56a16.61,16.61,0,0,0-5.89.9c.16-2.82-2.49-5-5.11-6.08s-6.06-1.43-8.21.51a4.56,4.56,0,0,0-7.45-3.28c-.89-4.72-5.23-6.13-9.46-4.46a10.11,10.11,0,0,0-6,11,6.5,6.5,0,0,0-7.73,1.91,8.51,8.51,0,0,0-1.07,8.17,9.44,9.44,0,0,0-5,3.66,2.92,2.92,0,0,0-.55,2.82,2.71,2.71,0,0,0,1.52,1.21,7.39,7.39,0,0,0,5.24.1,3.7,3.7,0,0,1,1.76-.39,3.31,3.31,0,0,1,1.33.68,12.12,12.12,0,0,0,13.81-.27A12,12,0,0,0,366.57,341a10,10,0,0,0,3.19-3.7,10.23,10.23,0,0,0,16.81-6.78,3.57,3.57,0,0,0,4.17-5.07Z" style="fill:#fff;opacity:0.12"></path><path d="M362.75,342.36c-2.86-.37-3.77-1.59-5.29-2.62a18.78,18.78,0,0,1-3.84-3.92,16.91,16.91,0,0,1-3.93,2.88,5.68,5.68,0,0,1-4.73.23,4.34,4.34,0,0,1-2.06-5.46,4.66,4.66,0,0,1-3.45-2.06,3.38,3.38,0,0,1,.21-3.88,4.87,4.87,0,0,1,1.89-1.21,16.06,16.06,0,0,1,7.25-1.17,5.93,5.93,0,1,1,10.72-4.46,7.23,7.23,0,0,1,1.23-5.3,4.71,4.71,0,0,1,1.69-1.43,4.68,4.68,0,0,0-3.73.94c-.89-4.72-5.23-6.13-9.46-4.46a10.11,10.11,0,0,0-6,11,6.5,6.5,0,0,0-7.73,1.91,8.51,8.51,0,0,0-1.07,8.17,9.44,9.44,0,0,0-5,3.66,2.92,2.92,0,0,0-.55,2.82,2.71,2.71,0,0,0,1.52,1.21,7.39,7.39,0,0,0,5.24.1,3.7,3.7,0,0,1,1.76-.39,3.31,3.31,0,0,1,1.33.68,12.12,12.12,0,0,0,13.81-.27A12.21,12.21,0,0,0,362.75,342.36Z" style="fill:#f0997a"></path></g></g></svg>
